<svg width="120" height="24" viewBox="0 0 120 24" fill="none" xmlns="http://www.w3.org/2000/svg">
<path d="M5.42321 12L2.71043 14.7104L0 12L2.71043 9.28957L5.42321 12ZM12 5.41852L16.6448 10.0656L19.3552 7.35522L12 0L4.64478 7.35522L7.35522 10.0656L12 5.41852ZM21.2919 9.28957L18.5815 12L21.2919 14.7104L24 12L21.2919 9.28957ZM12 18.5815L7.35522 13.9367L4.64478 16.6448L12 24L19.3552 16.6448L16.6448 13.9367L12 18.5815ZM12 14.7104L14.7104 12L12 9.28957L9.28956 12L12 14.7104ZM40.6049 14.9707V14.9332C40.6049 13.1653 39.667 12.2814 38.1407 11.6999C39.0785 11.1723 39.871 10.3447 39.871 8.86049V8.82298C39.871 6.75498 38.2157 5.41852 35.5264 5.41852H29.4209V18.5815H35.6811C38.6518 18.5815 40.6096 17.3787 40.6096 14.9707H40.6049ZM36.9941 9.34349C36.9941 10.3212 36.1852 10.7362 34.9074 10.7362H32.2415V7.9578H35.0996C36.3212 7.9578 36.9988 8.44549 36.9988 9.31067L36.9941 9.34349ZM37.728 14.6096C37.728 15.5873 36.9566 16.0375 35.6764 16.0375H32.2415V13.1465H35.5873C37.0738 13.1465 37.7327 13.6928 37.7327 14.5768L37.728 14.6096ZM46.6893 18.5815V5.41852H43.7843V18.5815H46.6893ZM62.2556 18.5815V5.41852H59.388V13.524L53.2216 5.41852H50.551V18.5815H53.4091V10.2134L59.7819 18.5815H62.2556ZM78.2954 18.5815L72.6448 5.32474H69.9742L64.3353 18.5815H67.2872L68.4947 15.6295H74.0609L75.2638 18.5815H78.2954ZM73.0316 13.0715H69.524L71.2731 8.80422L73.0316 13.0715ZM92.0985 18.5815V5.41852H89.2309V13.524L83.0621 5.41852H80.3939V18.5815H83.2497V10.2134L89.6248 18.5815H92.0985ZM107.046 16.4572L105.205 14.5955C104.171 15.5334 103.25 16.136 101.744 16.136C99.4888 16.136 97.9273 14.2603 97.9273 12V11.9625C97.9273 9.70692 99.5264 7.86401 101.744 7.86401C103.06 7.86401 104.089 8.42673 105.111 9.34818L106.947 7.22392C105.726 6.0211 104.241 5.19343 101.758 5.19343C97.7163 5.19343 94.8956 8.25791 94.8956 11.993V12.0305C94.8956 15.8101 97.7726 18.7995 101.646 18.7995C104.181 18.8066 105.683 17.9039 107.036 16.4572H107.046ZM119.402 18.5815V16.0023H112.246V13.2333H118.452V10.6542H112.246V7.99531H119.299V5.41618H109.369V18.5791L119.402 18.5815Z" fill="#F0B90B"/>
</svg>
