<svg width="72" height="24" viewBox="0 0 72 24" fill="none" xmlns="http://www.w3.org/2000/svg">
<path d="M51.3174 18.5026V0H55.0365V18.5026H51.3174Z" fill="#F7A600"/>
<path d="M7.97306 23.9987H0V5.49612H7.65244C11.3716 5.49612 13.5386 7.52304 13.5386 10.6936C13.5386 12.746 12.1469 14.0723 11.1836 14.5139C12.3334 15.0333 13.8053 16.2025 13.8053 18.6724C13.8053 22.1275 11.3716 23.9987 7.97306 23.9987ZM7.35807 8.71907H3.71911V12.9809H7.35807C8.9364 12.9809 9.81952 12.1232 9.81952 10.8493C9.81952 9.57679 8.9364 8.71907 7.35807 8.71907ZM7.59852 16.2294H3.71911V20.7771H7.59852C9.28465 20.7771 10.0862 19.7383 10.0862 18.4898C10.0862 17.2428 9.28316 16.2294 7.59852 16.2294Z" fill="#000008"/>
<path d="M25.149 16.4105V23.9987H21.4561V16.4105L15.7303 5.49612H19.77L23.3288 12.954L26.8337 5.49612H30.8734L25.149 16.4105Z" fill="#000008"/>
<path d="M41.4173 23.9987H33.4442V5.49612H41.0967C44.8158 5.49612 46.9829 7.52304 46.9829 10.6936C46.9829 12.746 45.5911 14.0723 44.6278 14.5139C45.7776 15.0333 47.2496 16.2025 47.2496 18.6724C47.2496 22.1275 44.8158 23.9987 41.4173 23.9987ZM40.8023 8.71907H37.1633V12.9809H40.8023C42.3806 12.9809 43.2638 12.1232 43.2638 10.8493C43.2638 9.57679 42.3806 8.71907 40.8023 8.71907ZM41.0428 16.2294H37.1633V20.7771H41.0428C42.7289 20.7771 43.5304 19.7383 43.5304 18.4898C43.5304 17.2428 42.7289 16.2294 41.0428 16.2294Z" fill="#000008"/>
<path d="M67.0232 8.71907V24.0001H63.3041V8.71907H58.3273V5.49612H72V8.71907H67.0232Z" fill="#000008"/>
</svg>
