<svg width="134" height="24" viewBox="0 0 134 24" fill="none" xmlns="http://www.w3.org/2000/svg">
<path d="M27.0296 6.69925C22.1683 6.69925 18.3648 10.3985 18.3648 15.3609C18.3648 20.3233 22.0783 24 27.0296 24C32.0034 24 35.7618 20.2556 35.7618 15.3383C35.7843 10.4211 32.0709 6.69925 27.0296 6.69925ZM27.0746 20.4135C24.3063 20.4135 22.2808 18.2481 22.2808 15.3609C22.2808 12.4286 24.2838 10.2857 27.0521 10.2857C29.8653 10.2857 31.8908 12.4737 31.8908 15.3609C31.8683 18.2481 29.8428 20.4135 27.0746 20.4135ZM36.8421 10.4662H39.2502V23.6617H43.1213V7.01504H36.8421V10.4662ZM8.64226 10.2632C10.6678 10.2632 12.2882 11.5263 12.8959 13.3759H16.9919C16.2492 9.38346 12.9634 6.67669 8.68727 6.67669C3.80349 6.69925 0 10.3985 0 15.3609C0 20.3233 3.71347 24 8.66476 24C12.8509 24 16.2042 21.2932 16.9469 17.2782H12.8959C12.3107 19.1504 10.7128 20.4361 8.66476 20.4361C5.85153 20.4361 3.89352 18.2707 3.89352 15.3835C3.89352 12.4286 5.82902 10.2632 8.64226 10.2632ZM110.324 13.7368L107.488 13.3083C106.138 13.1053 105.17 12.6541 105.17 11.594C105.17 10.4436 106.43 9.85714 108.141 9.85714C110.009 9.85714 111.202 10.6692 111.472 11.9774H115.208C114.78 8.6391 112.214 6.67669 108.253 6.67669C104.157 6.67669 101.456 8.77443 101.456 11.7293C101.456 14.5714 103.234 16.1955 106.813 16.7143L109.649 17.1429C111.044 17.3459 111.809 17.8872 111.809 18.9248C111.809 20.2556 110.459 20.797 108.591 20.797C106.295 20.797 105.012 19.8722 104.81 18.4511H101.006C101.366 21.6992 103.91 23.9774 108.546 23.9774C112.777 23.9774 115.568 22.0376 115.568 18.7218C115.545 15.7669 113.497 14.2331 110.324 13.7368ZM41.1858 0.157897C39.7679 0.157897 38.7101 1.19549 38.7101 2.59398C38.7101 4.01504 39.7679 5.03008 41.1858 5.03008C42.6036 5.03008 43.6614 3.99248 43.6614 2.59398C43.6614 1.19549 42.6036 0.157897 41.1858 0.157897ZM97.9456 12.7218C97.9456 9.11279 95.7625 6.69925 91.1038 6.69925C86.7151 6.69925 84.262 8.93233 83.7894 12.3383H87.6154C87.8179 11.0075 88.8307 9.92481 91.0363 9.92481C92.9943 9.92481 93.962 10.8045 93.962 11.8647C93.962 13.2406 92.1841 13.6015 90.001 13.8271C87.0302 14.1429 83.3618 15.1805 83.3618 19.0376C83.3618 22.0376 85.5899 23.9549 89.1233 23.9549C91.8915 23.9549 93.6245 22.8045 94.5022 20.9549C94.6372 22.6015 95.8525 23.6617 97.563 23.6617H99.8136V20.2105H97.9006L97.9456 12.7218ZM94.1421 16.8947C94.1421 19.1278 92.2066 20.7519 89.866 20.7519C88.4256 20.7519 87.1878 20.1429 87.1878 18.8571C87.1878 17.2105 89.1458 16.7594 90.9688 16.5789C92.7017 16.421 93.6695 16.0376 94.1646 15.2932C94.1421 15.2932 94.1421 16.8947 94.1421 16.8947ZM73.6167 6.69925C71.4562 6.69925 69.6557 7.60151 68.3729 9.11279V0H64.5018V23.6617H68.3053V21.4737C69.5882 23.0526 71.4337 23.9774 73.6167 23.9774C78.2529 23.9774 81.7639 20.3007 81.7639 15.3383C81.7639 10.3759 78.1854 6.69925 73.6167 6.69925ZM73.0316 20.4135C70.2634 20.4135 68.2378 18.2481 68.2378 15.3609C68.2378 12.4737 70.3084 10.2857 73.0766 10.2857C75.8898 10.2857 77.8478 12.4511 77.8478 15.3609C77.8253 18.2481 75.7998 20.4135 73.0316 20.4135ZM55.2294 6.69925C52.7088 6.69925 51.0658 7.73684 50.0981 9.18045V7.01504H46.2721V23.6617H50.1431V14.6165C50.1431 12.0677 51.7635 10.2632 54.1491 10.2632C56.3772 10.2632 57.7501 11.8421 57.7501 14.1203V23.6617H61.6211V13.8496C61.6211 9.65414 59.4605 6.69925 55.2294 6.69925ZM133.977 14.797C133.977 10.0376 130.489 6.67669 125.83 6.67669C120.857 6.67669 117.233 10.4211 117.233 15.3383C117.233 20.5263 121.127 23.9774 125.898 23.9774C129.926 23.9774 133.077 21.5865 133.887 18.2256H129.859C129.274 19.7143 127.856 20.5489 125.965 20.5489C123.49 20.5489 121.622 18.9925 121.194 16.3083H134L133.977 14.797ZM121.397 13.5113C122.004 11.188 123.76 10.0601 125.74 10.0601C127.923 10.0601 129.611 11.3233 129.994 13.5113H121.397Z" fill="#0052FF"/>
</svg>
