<svg width="140" height="24" viewBox="0 0 140 24" fill="none" xmlns="http://www.w3.org/2000/svg">
<path d="M20.6232 14.3488C20.2033 14.6047 19.7134 14.6512 19.3401 14.4419C18.8735 14.1628 18.5936 13.5349 18.5936 12.6744V10.0465C18.5936 8.7907 18.1036 7.88372 17.2638 7.65116C15.8407 7.23256 14.7675 8.97674 14.3709 9.6279L11.8514 13.6512V8.69767C11.828 7.55814 11.4548 6.88372 10.7549 6.67442C10.2883 6.53489 9.5884 6.60465 8.91185 7.62791L3.28945 16.6046C2.54291 15.186 2.14631 13.6047 2.14631 12C2.14631 6.5814 6.50892 2.18604 11.8514 2.18604C17.1938 2.18604 21.5564 6.5814 21.5564 12V12.0233V12.0465C21.6031 13.093 21.2765 13.9302 20.6232 14.3488ZM23.7027 12V11.9767V11.9535C23.6794 5.37209 18.3603 0 11.8514 0C5.31911 0 0 5.37209 0 12C0 18.6047 5.31911 24 11.8514 24C14.8609 24 17.7071 22.8605 19.9 20.7907C20.3433 20.3721 20.3666 19.6977 19.9467 19.2558C19.5501 18.814 18.8735 18.7907 18.4303 19.186C18.4303 19.186 18.4303 19.186 18.4069 19.2093C16.6339 20.8837 14.2543 21.8372 11.8047 21.8372C8.93518 21.8372 6.36894 20.5814 4.5959 18.5814L9.65839 10.4884V14.2326C9.65839 16.0233 10.3583 16.6047 10.9415 16.7674C11.5247 16.9302 12.4113 16.814 13.3678 15.3023L16.144 10.814C16.2373 10.6744 16.3073 10.5349 16.4006 10.4419V12.7209C16.4006 14.3954 17.0772 15.7442 18.2436 16.3953C19.2935 17 20.6232 16.9302 21.7197 16.2558C23.0728 15.3721 23.796 13.8372 23.7027 12ZM40.22 7.90698C40.4999 8.06977 40.7565 8.46511 40.7565 8.81395C40.7565 9.37209 40.29 9.83721 39.7534 9.83721C39.6134 9.83721 39.4968 9.7907 39.3801 9.76744C38.7502 9.30232 37.957 9 37.1171 9C35.1341 9 33.781 10.6047 33.781 12.6047C33.781 14.6047 35.1575 16.186 37.1171 16.186C38.097 16.186 38.9835 15.7907 39.6367 15.1628C39.8 15.0465 40.01 14.9767 40.22 14.9767C40.7565 14.9767 41.1765 15.3953 41.1765 15.9302C41.1765 16.2791 40.9665 16.5814 40.7099 16.7442C39.7534 17.5581 38.4703 18.093 37.1405 18.093C34.1077 18.093 31.6347 15.6046 31.6347 12.5349C31.6347 9.46511 34.1077 6.97674 37.1405 6.97674C38.2603 6.95349 39.3334 7.30232 40.22 7.90698ZM45.7724 10.2326C47.8487 10.2326 49.5751 11.9767 49.5751 14.1395C49.5751 16.2791 47.8254 18.1163 45.7724 18.1163C43.6027 18.1163 41.8064 16.3023 41.8064 14.1395C41.8064 11.9767 43.6027 10.2326 45.7724 10.2326ZM45.749 16.186C46.6589 16.186 47.4288 15.3256 47.4288 14.1628C47.4288 13 46.6589 12.2558 45.749 12.2558C44.7692 12.2558 43.9527 12.9767 43.9527 14.1628C43.9527 15.3023 44.7692 16.186 45.749 16.186ZM50.8815 16.907V11.4186C50.8815 10.814 51.3481 10.3256 51.9547 10.3256C52.5379 10.3256 53.0278 10.814 53.0278 11.4186V16.907C53.0278 17.5116 52.5379 18 51.9547 18C51.3714 18 50.8815 17.4884 50.8815 16.907ZM50.7182 8.25581C50.7182 7.53488 51.2781 6.97674 51.9547 6.97674C52.6546 6.97674 53.2145 7.55814 53.2145 8.25581C53.2145 8.95349 52.6546 9.51163 51.9547 9.51163C51.2548 9.48837 50.7182 8.93023 50.7182 8.25581ZM57.1338 13.9302V16.907C57.1338 17.5116 56.6439 18 56.0607 18C55.4774 18 54.9875 17.5116 54.9875 16.907V11.1628C54.9875 10.6977 55.3608 10.3256 55.8274 10.3256C56.294 10.3256 56.6439 10.7209 56.6439 11.1628C57.5071 10.3488 58.277 10.2326 59.0002 10.2326C61.1465 10.2326 62.103 11.8372 62.103 13.6744V16.907C62.103 17.5116 61.6131 18 61.0298 18C60.4466 18 59.9567 17.5116 59.9567 16.907V13.9302C59.9567 13 59.84 12.2093 58.4869 12.2093C57.5304 12.2093 57.1338 13 57.1338 13.9302ZM69.0552 15.0698C68.7985 15.0698 68.6352 14.9535 68.4952 14.7907L65.999 12.093V16.907C65.999 17.5116 65.5091 18 64.9258 18C64.3426 18 63.8527 17.5116 63.8527 16.907V7.3721C63.9227 7.2093 64.086 7.09302 64.2493 7.09302C64.4359 7.09302 64.5992 7.25582 64.7159 7.3721L68.7052 11.8372C68.8219 11.9767 68.9618 12.0465 69.0552 12.0465C69.1251 12.0465 69.2885 11.9767 69.4051 11.8372L73.3944 7.3721C73.5111 7.25582 73.6511 7.09302 73.861 7.09302C74.0477 7.09302 74.211 7.2093 74.2576 7.3721V16.907C74.2576 17.5116 73.791 18 73.1845 18C72.6012 18 72.1113 17.5116 72.1113 16.907V12.093L69.6151 14.7907C69.4284 14.9535 69.2651 15.0698 69.0552 15.0698ZM79.3668 16.186C80.3233 16.186 81.1398 15.3256 81.1398 14.1628C81.1398 13 80.2999 12.2326 79.3668 12.2326C78.4336 12.2326 77.6637 13.0233 77.6637 14.1628C77.6637 15.2791 78.4103 16.186 79.3668 16.186ZM81.6531 17.1628L81.6064 16.907C81.1865 17.7209 79.8567 18.093 79.0168 18.093C77.0105 18.093 75.5174 16.2791 75.5174 14.1163C75.5174 11.9767 77.0338 10.2093 79.1335 10.2093C79.4834 10.2093 80.6965 10.3023 81.6297 11.3953L81.6764 11.1395C81.6764 10.6744 82.0263 10.3023 82.4929 10.3023C82.9595 10.3023 83.3328 10.6977 83.3328 11.1395V17.1395C83.3328 17.6047 82.9595 17.9767 82.4929 17.9767C82.003 18 81.6531 17.6047 81.6531 17.1628ZM89.2351 12.2093H89.0018C87.6487 12.2791 87.3921 13.0465 87.3921 13.9302V16.907C87.3921 17.5116 86.9022 18 86.3189 18C85.7357 18 85.2458 17.5116 85.2458 16.907V11.1628C85.2458 10.6977 85.6191 10.3256 86.0857 10.3256C86.5522 10.3256 86.9022 10.7209 86.9022 11.1628C87.6954 10.4186 88.3486 10.2558 89.0018 10.2326H89.2118C89.725 10.2326 90.1916 10.6744 90.1916 11.2326C90.215 11.7442 89.7484 12.2093 89.2351 12.2093ZM97.5171 16.3953C97.6104 16.5581 97.6804 16.7209 97.6804 16.907C97.6804 17.4651 97.1671 17.9767 96.6072 17.9767C96.234 17.9767 95.9073 17.6977 95.6507 17.3721L93.1778 14.5116V16.8837C93.1778 17.4884 92.6879 17.9767 92.1047 17.9767C91.5214 17.9767 91.0315 17.4884 91.0315 16.8837V8.16279C91.0315 7.55814 91.4981 7.06977 92.1047 7.06977C92.7112 7.06977 93.1778 7.55814 93.1778 8.16279V13.6046L95.6507 10.8837C95.9073 10.6047 96.2106 10.3023 96.5839 10.3023C97.1205 10.3023 97.6104 10.7907 97.6104 11.3488C97.6104 11.5116 97.5637 11.6977 97.4704 11.8372L95.5107 13.9767L97.5171 16.3953ZM101.716 12.2326C101.133 12.2326 100.177 12.5349 100.177 13.4419H103.279C103.256 12.5349 102.276 12.2326 101.716 12.2326ZM104.516 14.814H100.177C100.177 16.093 101.413 16.3023 101.95 16.3023C102.346 16.3023 102.906 16.2326 103.349 16.0233C103.489 15.9302 103.699 15.8605 103.909 15.8605C104.376 15.8605 104.773 16.2558 104.773 16.7442C104.773 17.0698 104.563 17.3488 104.306 17.5116C103.653 18 102.79 18.1163 101.973 18.1163C99.8034 18.1163 98.007 16.9535 98.007 14.2326C98.007 12.093 99.1035 10.2326 101.67 10.2326C103.746 10.2326 105.309 11.5814 105.356 13.9767C105.356 14.4186 104.983 14.814 104.516 14.814ZM110.488 18.093H109.905C108.272 18.093 107.315 17.3721 107.315 14.8372V12.2093H106.756C106.242 12.2093 105.799 11.7442 105.799 11.2326C105.799 10.6744 106.266 10.2326 106.756 10.2326H107.315V8.20931C107.315 7.60465 107.782 7.11628 108.389 7.11628C108.972 7.11628 109.462 7.60465 109.462 8.20931V10.2326H110.348C110.862 10.2326 111.305 10.6744 111.305 11.2326C111.305 11.7442 110.838 12.2093 110.348 12.2093H109.462V14.4186C109.462 15.8837 109.532 16.186 110.185 16.186H110.488C111.001 16.186 111.445 16.6047 111.445 17.1395C111.445 17.6512 111.001 18.093 110.488 18.093ZM120.87 7.90698C121.15 8.06977 121.406 8.46511 121.406 8.81395C121.406 9.37209 120.94 9.83721 120.403 9.83721C120.263 9.83721 120.147 9.7907 120.03 9.76744C119.4 9.30232 118.607 9 117.767 9C115.784 9 114.431 10.6047 114.431 12.6047C114.431 14.6047 115.807 16.186 117.767 16.186C118.747 16.186 119.633 15.7907 120.287 15.1628C120.45 15.0465 120.66 14.9767 120.87 14.9767C121.406 14.9767 121.826 15.3953 121.826 15.9302C121.826 16.2791 121.616 16.5814 121.36 16.7442C120.403 17.5581 119.12 18.093 117.79 18.093C114.758 18.093 112.285 15.6046 112.285 12.5349C112.285 9.46511 114.758 6.97674 117.79 6.97674C118.91 6.95349 120.007 7.30232 120.87 7.90698ZM126.306 16.186C127.262 16.186 128.079 15.3256 128.079 14.1628C128.079 13 127.239 12.2326 126.306 12.2326C125.349 12.2326 124.603 13.0233 124.603 14.1628C124.603 15.2791 125.372 16.186 126.306 16.186ZM128.592 17.1628L128.545 16.907C128.125 17.7209 126.796 18.093 125.956 18.093C123.949 18.093 122.456 16.2791 122.456 14.1163C122.456 11.9767 123.973 10.2093 126.072 10.2093C126.422 10.2093 127.635 10.3023 128.569 11.3953L128.615 11.1395C128.615 10.6744 128.965 10.3023 129.432 10.3023C129.898 10.3023 130.272 10.6977 130.272 11.1395V17.1395C130.272 17.6047 129.898 17.9767 129.432 17.9767C128.942 18 128.592 17.6047 128.592 17.1628ZM136.127 16.186C137.084 16.186 137.83 15.2791 137.83 14.1628C137.83 13 137.061 12.2326 136.127 12.2326C135.171 12.2326 134.354 13 134.354 14.1628C134.354 15.3256 135.171 16.186 136.127 16.186ZM134.354 17.4651V20.186C134.354 20.7907 133.864 21.2791 133.281 21.2791C132.698 21.2791 132.208 20.7907 132.208 20.186V11.1628C132.208 10.6977 132.581 10.3256 133.048 10.3256C133.514 10.3256 133.864 10.7209 133.864 11.2558C134.658 10.4419 135.637 10.2326 136.384 10.2326C138.46 10.2326 140 11.9767 140 14.1395C140 16.2791 138.53 18.1163 136.501 18.1163C135.871 18.093 134.938 17.907 134.354 17.4651Z" fill="#17181B"/>
</svg>
