<svg width="108" height="24" viewBox="0 0 108 24" fill="none" xmlns="http://www.w3.org/2000/svg">
<path d="M105.732 13.6293C105.732 12.2273 104.904 11.1668 103.59 11.1668C102.276 11.1668 101.448 12.2273 101.448 13.6293C101.448 15.0313 102.276 16.0918 103.59 16.0918C104.904 16.0918 105.732 15.0313 105.732 13.6293ZM105.66 10.2322V6.54739C105.66 6.29574 105.822 6.09802 106.056 6.02613L108 5.50487V17.9432H105.84V16.8827C105.3 17.6736 104.31 18.1409 103.086 18.1409C100.566 18.1409 99.108 16.1278 99.108 13.6114C99.108 11.0949 100.584 9.08179 103.086 9.08179C104.328 9.09976 105.21 9.62102 105.66 10.2322ZM92.34 9.29749V10.358C92.736 9.62103 93.636 9.09976 94.914 9.09976C97.002 9.09976 98.1 10.4838 98.1 12.5509V17.9612H95.76V12.8205C95.76 11.8139 95.328 11.1129 94.284 11.1129C93.15 11.1129 92.52 11.8319 92.52 13.0002V17.9612H90.18V9.31546H92.34V9.29749ZM84.69 18.1589C82.152 18.1589 80.748 17.0625 80.748 14.2584V9.29749H83.088V14.2944C83.088 15.4987 83.628 16.0559 84.672 16.0559C85.716 16.0559 86.256 15.4987 86.256 14.2944V9.29749H88.596V14.2584C88.614 17.0625 87.21 18.1589 84.69 18.1589ZM72.99 13.6293C72.99 15.1751 73.944 16.0918 75.186 16.0918C76.428 16.0918 77.382 15.1751 77.382 13.6293C77.382 12.0835 76.428 11.1668 75.186 11.1668C73.962 11.1668 72.99 12.0656 72.99 13.6293ZM75.186 18.1589C72.414 18.1589 70.632 16.0918 70.632 13.6293C70.632 11.1668 72.396 9.09976 75.186 9.09976C77.958 9.09976 79.74 11.1668 79.74 13.6293C79.74 16.0918 77.976 18.1589 75.186 18.1589ZM63.486 13.6293C63.486 15.0313 64.314 16.0918 65.628 16.0918C66.942 16.0918 67.77 15.0313 67.77 13.6293C67.77 12.2273 66.942 11.1668 65.628 11.1668C64.314 11.1668 63.486 12.2273 63.486 13.6293ZM63.558 17.0265V20.6214C63.558 20.8731 63.396 21.0708 63.162 21.1427L61.218 21.646V9.29749H63.378V10.358C63.918 9.5671 64.908 9.09976 66.132 9.09976C68.652 9.09976 70.11 11.1129 70.11 13.6293C70.11 16.1458 68.634 18.1589 66.132 18.1589C64.89 18.1589 64.008 17.6197 63.558 17.0265ZM54.234 13.0362V17.9612H51.894V12.8205C51.894 11.8678 51.552 11.1129 50.508 11.1129C49.41 11.1129 48.816 11.8139 48.816 12.9823V17.9612H46.476V9.29749H48.636V10.358C49.032 9.62103 49.896 9.09976 51.138 9.09976C52.308 9.09976 53.154 9.5671 53.658 10.322C54.414 9.47723 55.296 9.09976 56.538 9.09976C58.626 9.09976 59.688 10.5377 59.688 12.5509V17.9612H57.348V12.8205C57.348 11.8678 57.006 11.1129 55.962 11.1129C54.81 11.1129 54.234 11.8319 54.234 13.0362ZM38.628 13.6293C38.628 15.1751 39.582 16.0918 40.824 16.0918C42.066 16.0918 43.02 15.1751 43.02 13.6293C43.02 12.0835 42.066 11.1668 40.824 11.1668C39.582 11.1668 38.628 12.0656 38.628 13.6293ZM40.824 18.1589C38.052 18.1589 36.27 16.0918 36.27 13.6293C36.27 11.1668 38.034 9.09976 40.824 9.09976C43.614 9.09976 45.378 11.1668 45.378 13.6293C45.378 16.0918 43.596 18.1589 40.824 18.1589ZM24.084 12.0656C24.084 8.39876 26.622 5.97221 29.988 5.97221C32.922 5.97221 35.226 7.69776 35.676 10.5557H33.102C32.76 9.08179 31.572 8.25496 29.988 8.25496C27.846 8.25496 26.622 9.74685 26.622 12.0476C26.622 14.3663 27.828 15.8402 29.988 15.8402C31.554 15.8402 32.742 15.0134 33.102 13.5395H35.676C35.226 16.3974 32.922 18.123 29.988 18.123C26.622 18.1769 24.084 15.7324 24.084 12.0656Z" fill="#000008"/>
<path d="M0.972 18.6802C0.378 18.3207 0 17.6556 0 16.9726V13.0721C0 12.9284 0.0360001 12.7846 0.108 12.6587C0.342 12.2633 0.864 12.1195 1.26 12.3532L10.08 17.4939C10.602 17.7994 10.908 18.3387 10.908 18.9498V22.9941C10.908 23.1738 10.854 23.3536 10.764 23.5153C10.476 23.9827 9.846 24.1444 9.378 23.8568L0.972 18.6802ZM14.13 11.2747C14.652 11.5803 14.958 12.1195 14.958 12.7306V20.945C14.958 21.1966 14.832 21.4123 14.616 21.5381L12.69 22.6166C12.672 22.6346 12.636 22.6346 12.618 22.6525V18.105C12.618 17.5118 12.312 16.9726 11.808 16.667L4.068 12.0476V6.85297C4.068 6.70918 4.104 6.56538 4.176 6.43956C4.41 6.04412 4.932 5.90033 5.328 6.13399L14.13 11.2747ZM17.982 5.19932C18.504 5.50489 18.81 6.04412 18.81 6.65525V18.6442C18.81 18.8959 18.666 19.1116 18.45 19.2374L16.614 20.226V11.8858C16.614 11.2927 16.308 10.7534 15.804 10.4479L7.884 5.70261V0.831521C7.884 0.687726 7.92 0.543932 7.992 0.41811C8.226 0.0226718 8.748 -0.121126 9.144 0.112542L17.982 5.19932Z" fill="#00D395"/>
</svg>
