<svg width="126" height="24" viewBox="0 0 126 24" fill="none" xmlns="http://www.w3.org/2000/svg">
<path d="M14.616 19.3125H13.125L11.34 17.6875V16.8542L13.188 15.1042V12.3333L15.603 10.7708L18.354 12.8333L14.616 19.3125ZM8.442 14.9375L8.715 12.3333L7.812 10H13.146L12.264 12.3333L12.516 14.9375H10.458H8.442ZM9.66 17.6875L7.875 19.3333H6.363L2.604 12.8333L5.376 10.7917L7.812 12.3333V15.1042L9.66 16.8542V17.6875ZM6.342 5.1875H14.595L15.582 9.35417H5.376L6.342 5.1875ZM10.479 0L0 6V18L10.479 24L20.958 18V6L10.479 0Z" fill="#03316C"/>
<path d="M13.125 19.3126H14.616L18.354 12.8335L15.603 10.771L13.188 12.3335V15.1043L11.34 16.8543V17.6876L13.125 19.3126Z" fill="white"/>
<path d="M8.715 12.3335L8.442 14.9376H12.516L12.264 12.3335L13.146 10.0001H7.812L8.715 12.3335Z" fill="white"/>
<path d="M7.875 19.3335L9.66 17.6876V16.8543L7.812 15.1043V12.3335L5.376 10.7918L2.604 12.8335L6.363 19.3335H7.875Z" fill="white"/>
<path d="M14.595 5.18764H6.342L5.376 9.3543H15.582L14.595 5.18764Z" fill="white"/>
<path d="M70.8751 9.91674V14.4584C70.8751 15.2709 71.2951 15.6042 72.0301 15.6042H72.8701V17.5001H71.4001C69.8461 17.5001 68.7331 16.8126 68.7331 14.7917V9.91674H67.5571V8.10425H68.7331V5.56258H70.8751V8.10425H72.8701V9.91674H70.8751Z" fill="#002E73"/>
<path d="M55.0621 7.89591L50.3371 20.1459H48.1741L49.2031 17.5626L45.1501 7.89591H47.4391L50.1901 15.0417L52.8361 7.89591H55.0621Z" fill="#002E73"/>
<path d="M27.9091 12.7709C27.9091 15.4167 29.9461 17.5626 32.7181 17.5626C34.5241 17.5626 35.5951 16.8334 36.5191 15.8542L35.2381 14.5834C34.5661 15.2501 33.8311 15.7292 32.8231 15.7292C31.1851 15.7292 30.0301 14.3959 30.0301 12.7292C30.0301 11.1042 31.1641 9.77091 32.7181 9.77091C33.7891 9.77091 34.4821 10.2292 35.1331 10.9167L36.4561 9.50007C35.5951 8.56257 34.5031 7.91674 32.7391 7.91674C29.9671 7.91674 27.9091 10.1251 27.9091 12.7709Z" fill="#002E73"/>
<path d="M38.4301 17.5626H40.5721V13.8542C40.5721 11.3959 41.8741 10.1876 43.7431 10.1876H43.8691V7.93758C42.2311 7.85425 41.1601 8.81258 40.5721 10.1876V7.93758H38.4301V17.5626Z" fill="#002E73"/>
<path fill-rule="evenodd" clip-rule="evenodd" d="M58.6951 15.9167C59.3461 16.7709 60.3121 17.5417 61.8451 17.5417C64.0711 17.5417 66.1921 15.7917 66.1921 12.7084C66.1921 9.62507 64.0501 7.89591 61.8451 7.89591C60.3541 7.89591 59.3881 8.66674 58.6951 9.62508V7.89591H56.5531V20.1459H58.6951V15.9167ZM58.6531 12.7292C58.6531 10.9167 59.9131 9.75008 61.3621 9.75008C62.8111 9.75008 64.0291 10.8959 64.0291 12.7292C64.0291 14.5626 62.8321 15.7084 61.3621 15.7084C59.9341 15.7084 58.6531 14.5417 58.6531 12.7292Z" fill="#002E73"/>
<path fill-rule="evenodd" clip-rule="evenodd" d="M74.6761 12.7709C74.6761 15.4167 76.7761 17.5626 79.6111 17.5626C82.5091 17.5626 84.6091 15.3542 84.6091 12.7292C84.6091 10.0626 82.5091 7.91674 79.6531 7.91674C76.7971 7.91674 74.6761 10.1042 74.6761 12.7709ZM76.7971 12.7084C76.7971 11.0834 77.8891 9.75008 79.6111 9.75008C81.2911 9.75008 82.4881 11.1042 82.4461 12.7501C82.4461 14.3751 81.3541 15.7084 79.6321 15.7084C77.9731 15.7084 76.7971 14.3542 76.7971 12.7084Z" fill="#002E73"/>
<path fill-rule="evenodd" clip-rule="evenodd" d="M105.042 17.5626C102.207 17.5626 100.107 15.4167 100.107 12.7709C100.107 10.1042 102.228 7.91674 105.084 7.91674C107.94 7.91674 110.04 10.0626 110.04 12.7292C110.04 15.3542 107.919 17.5626 105.042 17.5626ZM105.042 9.75008C103.32 9.75008 102.228 11.0834 102.228 12.7084C102.228 14.3542 103.404 15.7084 105.063 15.7084C106.785 15.7084 107.877 14.3751 107.877 12.7501C107.898 11.1042 106.722 9.75008 105.042 9.75008Z" fill="#002E73"/>
<path d="M126 11.4376C126 9.16675 124.761 7.89591 122.724 7.89591C121.317 7.89591 120.33 8.54174 119.553 9.54174C119.049 8.56258 118.125 7.91674 116.781 7.91674C115.353 7.91674 114.555 8.68757 113.946 9.50007V7.91674H111.804V17.5626H113.946V12.1459C113.946 10.7084 114.765 9.83341 115.941 9.83341C117.117 9.83341 117.831 10.6459 117.831 12.0834V17.5626H119.973V12.1251C119.973 10.6459 120.813 9.83341 121.968 9.83341C123.165 9.83341 123.858 10.6042 123.858 12.0834V17.5417H126V11.4376Z" fill="#002E73"/>
<path d="M86.4781 15.5001L87.4021 14.9792H87.5281L88.4731 15.5001L88.5361 15.6042V16.6876L88.4731 16.7917L87.5281 17.3126H87.4021L86.4781 16.7917L86.4151 16.6876V15.6042L86.4781 15.5001Z" fill="#002E73"/>
<path d="M90.3001 12.6459C90.2581 15.2918 92.2531 17.4792 95.0251 17.5417C96.8521 17.5834 97.9441 16.8751 98.8891 15.8959L97.6291 14.6042C96.9571 15.2709 96.201 15.7293 95.193 15.7084C93.5551 15.6876 92.4211 14.3334 92.4631 12.6668C92.484 11.0209 93.6391 9.72925 95.193 9.75009C96.2641 9.77092 96.957 10.2709 97.5871 10.9584L98.931 9.56259C98.091 8.60425 96.9991 7.93759 95.2351 7.89592C92.4421 7.83342 90.3421 10.0001 90.3001 12.6459Z" fill="#002E73"/>
</svg>
