<svg width="278" height="273" viewBox="0 0 278 273" fill="none" xmlns="http://www.w3.org/2000/svg">
<path d="M230.668 265.338H223.906L223.983 249.677H230.745L230.668 265.338Z" fill="#B55B52"/>
<path d="M271.289 265.338H264.527L261.872 249.677H268.634L271.289 265.338Z" fill="#B55B52"/>
<path d="M264.078 264.558H271.714C271.845 264.554 271.974 264.599 272.076 264.683C272.177 264.767 272.244 264.886 272.265 265.016L273.317 271.031C273.339 271.181 273.328 271.334 273.286 271.479C273.244 271.624 273.17 271.758 273.071 271.873C272.972 271.987 272.85 272.079 272.712 272.141C272.574 272.204 272.425 272.236 272.273 272.236C269.618 272.185 268.337 272.032 264.994 272.032C262.941 272.032 257.359 272.245 254.551 272.245C251.742 272.245 251.479 269.436 252.65 269.182C257.919 268.045 261.253 266.475 262.992 264.94C263.298 264.69 263.683 264.555 264.078 264.558Z" fill="#263238"/>
<path d="M223.991 264.558H231.372C231.505 264.556 231.634 264.601 231.736 264.684C231.839 264.768 231.908 264.886 231.932 265.016L232.976 271.031C233 271.18 232.992 271.332 232.952 271.477C232.912 271.623 232.84 271.757 232.743 271.872C232.645 271.987 232.523 272.079 232.386 272.142C232.249 272.205 232.1 272.237 231.949 272.236C229.285 272.185 225.442 272.032 222.091 272.032C218.18 272.032 216.025 272.244 211.435 272.244C208.652 272.244 208.041 269.436 209.195 269.182C214.54 268.028 217.628 267.901 222.337 265.084C222.831 264.762 223.402 264.58 223.991 264.558Z" fill="#263238"/>
<path d="M230.015 54.6644L220.776 51.958C220.776 51.958 210.951 76.5615 208.525 79.1067C205.233 82.5597 201.924 89.9322 196.546 96.0746C196.919 97.1691 198.701 99.6124 199.651 100.011C206.862 95.0735 215.77 86.8356 217.611 82.8481C221.752 73.7872 230.015 54.6644 230.015 54.6644Z" fill="#B55B52"/>
<path d="M232.815 50.4395C235.445 56.2934 227.656 68.7225 227.656 68.7225L213.828 62.7158C215.51 56.9262 217.784 51.3255 220.615 46.0024C224.874 38.3414 229.93 44.0511 232.815 50.4395Z" fill="#8FFE09"/>
<path opacity="0.4" d="M232.815 50.4395C235.445 56.2934 227.656 68.7225 227.656 68.7225L213.828 62.7158C215.51 56.9262 217.784 51.3255 220.615 46.0024C224.874 38.3414 229.93 44.0511 232.815 50.4395Z" fill="white"/>
<path d="M198.751 94.2849L191.761 97.7379L197.335 104.415C197.335 104.415 198.972 103.337 200.839 98.7475L198.751 94.2849Z" fill="#B55B52"/>
<path d="M189.088 105.789L190.538 106.994C191.014 107.385 191.609 107.603 192.225 107.614C192.841 107.625 193.442 107.427 193.932 107.053L197.326 104.414L191.752 97.7375L188.613 102.098C188.213 102.66 188.04 103.352 188.128 104.037C188.216 104.721 188.559 105.346 189.088 105.789Z" fill="#B55B52"/>
<path d="M176.933 81.6549L110.913 101.537C105.053 103.302 101.734 109.482 103.498 115.342L120.849 172.954C122.613 178.814 128.794 182.133 134.653 180.369L200.673 160.486C206.533 158.721 209.852 152.541 208.088 146.682L190.737 89.0692C188.973 83.2098 182.792 79.8903 176.933 81.6549Z" fill="white"/>
<path opacity="0.5" d="M176.933 81.6549L110.913 101.537C105.053 103.302 101.734 109.482 103.498 115.342L120.849 172.954C122.613 178.814 128.794 182.133 134.653 180.369L200.673 160.486C206.533 158.721 209.852 152.541 208.088 146.682L190.737 89.0692C188.973 83.2098 182.792 79.8903 176.933 81.6549Z" fill="#8FFE09"/>
<path d="M155.823 131.029L128.674 143.687C125.892 137.713 125.159 130.988 126.586 124.555C128.014 118.122 131.524 112.339 136.572 108.103C141.62 103.867 147.924 101.415 154.507 101.125C161.09 100.835 167.586 102.725 172.986 106.501L155.823 131.029Z" fill="#8FFE09"/>
<path d="M173.384 108.911C174.227 109.581 175.031 110.298 175.794 111.058C178.654 113.925 180.865 117.373 182.276 121.17C183.687 124.966 184.264 129.022 183.97 133.061C183.675 137.101 182.515 141.029 180.569 144.581C178.622 148.133 175.935 151.224 172.688 153.646C169.442 156.067 165.713 157.762 161.753 158.616C157.794 159.47 153.698 159.462 149.742 158.593C145.786 157.724 142.063 156.014 138.826 153.58C135.59 151.146 132.914 148.044 130.981 144.484L156.535 132.607L156.951 132.42L157.214 132.047L173.384 108.954M172.994 106.544L155.822 131.071L128.674 143.729C130.533 147.677 133.233 151.171 136.584 153.965C139.935 156.76 143.856 158.789 148.073 159.909C152.291 161.029 156.702 161.214 160.998 160.451C165.295 159.687 169.372 157.994 172.945 155.489C176.518 152.985 179.501 149.729 181.684 145.951C183.867 142.173 185.198 137.963 185.583 133.616C185.968 129.27 185.399 124.892 183.914 120.788C182.43 116.685 180.067 112.956 176.99 109.861C175.761 108.614 174.424 107.479 172.994 106.468V106.544Z" fill="white"/>
<path opacity="0.2" d="M223.983 249.677L223.94 257.754H230.711L230.753 249.677H223.983Z" fill="black"/>
<path opacity="0.2" d="M268.634 249.677H261.872L263.238 257.754H270.008L268.634 249.677Z" fill="black"/>
<path d="M224.22 42.4477C224.22 42.4477 215.193 65.6937 220.962 103.744H257.147C257.664 98.1873 255.526 68.2729 262.135 42.0998C258.159 41.3308 254.138 40.8206 250.096 40.5727C244.974 40.2756 239.838 40.2756 234.715 40.5727C231.174 40.9306 227.666 41.5574 224.22 42.4477Z" fill="#8FFE09"/>
<path opacity="0.4" d="M224.22 42.4477C224.22 42.4477 215.193 65.6937 220.962 103.744H257.147C257.664 98.1873 255.526 68.2729 262.135 42.0998C258.159 41.3308 254.138 40.8206 250.096 40.5727C244.974 40.2756 239.838 40.2756 234.715 40.5727C231.174 40.9306 227.666 41.5574 224.22 42.4477Z" fill="white"/>
<path opacity="0.2" d="M253.965 48.5649C253.116 52.8748 254.024 63.1743 257.562 75.0858C257.984 64.8627 259.304 54.6965 261.507 44.7047V44.6538C259.14 44.4078 254.737 44.5266 253.965 48.5649Z" fill="black"/>
<path d="M248.773 26.2349C247.568 31.181 246.788 37.3149 250.097 40.6576C250.097 40.6576 247.865 45.6801 238.669 45.6801C230.27 45.6801 234.715 40.6576 234.715 40.6576C240.298 39.3426 240.332 32.513 239.56 28.6698L248.773 26.2349Z" fill="#B55B52"/>
<path d="M238.677 45.5953C244.098 46.7661 245.176 48.9889 245.176 48.9889C245.176 48.9889 251.921 46.2485 251.666 40.3013C251.666 40.3013 250.08 39.3256 249.121 38.5366C249.104 38.5706 248.485 43.2028 238.677 45.5953Z" fill="white"/>
<path d="M238.677 45.5954C234.29 45.8669 232.254 47.8945 232.254 47.8945C232.254 47.8945 231.151 46.4607 233.001 40.5729C233.97 40.1836 234.969 39.8716 235.987 39.6396C235.987 39.6396 235.105 44.3228 238.677 45.5954Z" fill="white"/>
<path opacity="0.2" d="M239.551 28.5932C240.018 30.8415 240.196 34.1163 239.127 36.7124C239.993 36.583 240.836 36.3287 241.629 35.9573C244.811 34.4896 246.448 32.1819 248.213 28.7544C248.374 27.906 248.561 27.0576 248.773 26.2092L239.551 28.5932Z" fill="black"/>
<path d="M231.856 23.1802C232.099 23.962 232.501 24.6852 233.036 25.3042C233.572 25.9233 234.23 26.4248 234.969 26.7774C236.954 27.7107 238.363 25.929 238.219 23.8589C238.057 21.9585 236.836 19.1843 234.655 19.1418C234.174 19.1469 233.701 19.2672 233.276 19.4926C232.851 19.718 232.486 20.0421 232.212 20.4375C231.938 20.833 231.762 21.2884 231.7 21.7656C231.638 22.2427 231.692 22.7278 231.856 23.1802Z" fill="#B55B52"/>
<path opacity="0.2" d="M231.856 23.1802C232.099 23.962 232.501 24.6852 233.036 25.3042C233.572 25.9233 234.23 26.4248 234.969 26.7774C236.954 27.7107 238.363 25.929 238.219 23.8589C238.057 21.9585 236.836 19.1843 234.655 19.1418C234.174 19.1469 233.701 19.2672 233.276 19.4926C232.851 19.718 232.486 20.0421 232.212 20.4375C231.938 20.833 231.762 21.2884 231.7 21.7656C231.638 22.2427 231.692 22.7278 231.856 23.1802Z" fill="black"/>
<path d="M238.982 9.26705C236.25 8.27443 231.856 18.3025 237.947 18.8794C244.039 19.4563 243.089 10.7772 238.982 9.26705Z" fill="#263238"/>
<path d="M253.074 20.1603C250.97 26.6421 250.054 30.5362 245.914 33.1917C239.686 37.1961 232.492 32.4451 232.653 25.5562C232.806 19.3459 236.225 9.78446 243.233 8.58822C250.24 7.39198 255.178 13.6701 253.074 20.1603Z" fill="#B55B52"/>
<path d="M238.677 12.8301C233.374 8.80875 236.403 0.655657 240.586 0.104199C246.27 -0.608454 249.519 10.6583 256.111 11.1758C262.703 11.6933 259.853 22.2049 251.292 25.098C248.145 26.1754 247.653 22.1795 250.792 16.614C248.773 17.1485 241.739 15.1548 238.677 12.8301Z" fill="#263238"/>
<path d="M238.618 27.0237C239.25 27.0791 239.887 27.0078 240.492 26.814C241.096 26.6203 241.656 26.308 242.138 25.8954C242.154 25.8804 242.166 25.8625 242.174 25.8429C242.182 25.8232 242.186 25.8021 242.186 25.7808C242.186 25.7595 242.182 25.7385 242.174 25.7188C242.166 25.6991 242.154 25.6813 242.138 25.6663C242.107 25.6377 242.066 25.6218 242.024 25.6218C241.982 25.6218 241.941 25.6377 241.909 25.6663C241.379 26.1056 240.757 26.4192 240.088 26.5838C239.42 26.7483 238.723 26.7595 238.049 26.6165C238.008 26.609 237.965 26.6182 237.93 26.642C237.895 26.6658 237.871 26.7023 237.863 26.7438C237.858 26.7639 237.857 26.7847 237.86 26.8052C237.863 26.8256 237.871 26.8451 237.882 26.8626C237.893 26.88 237.908 26.895 237.925 26.9067C237.942 26.9184 237.961 26.9264 237.981 26.9304C238.191 26.9737 238.404 27.0048 238.618 27.0237Z" fill="#263238"/>
<path d="M254.11 28.0418C252.893 29.2426 251.263 29.9318 249.554 29.9677C247.322 29.9677 246.898 27.8297 248.094 26.0141C249.172 24.3852 251.624 22.4169 253.592 23.2823C255.56 24.1477 255.603 26.5402 254.11 28.0418Z" fill="#B55B52"/>
<path d="M244.743 103.744C244.743 103.744 243.827 112.228 242.648 123.775C241.299 136.84 239.619 153.8 238.558 166.729C238.555 166.789 238.555 166.848 238.558 166.908C238.355 169.359 238.168 171.659 238.024 173.763C236.505 194.845 232.934 256.193 232.934 256.193H221.48C221.48 256.193 217.162 193.59 217.416 172.134C217.662 151.501 220.946 103.744 220.946 103.744H244.743Z" fill="#8FFE09"/>
<path d="M233.9 251.705C233.951 251.705 233.697 256.422 233.697 256.422H220.487L220.156 251.238L233.9 251.705Z" fill="#263238"/>
<path opacity="0.2" d="M242.647 123.8C241.299 136.866 239.619 153.825 238.558 166.755C238.554 166.814 238.554 166.874 238.558 166.933C236.013 154.682 235.258 139.436 236.234 114.332L242.647 123.8Z" fill="black"/>
<path d="M233.832 103.745C233.832 103.745 239.109 152.621 242.401 171.99C245.998 193.199 260.217 256.193 260.217 256.193H272.612C272.612 256.193 264.256 194.913 262.627 173.898C260.854 151.102 257.205 103.728 257.205 103.728L233.832 103.745Z" fill="#8FFE09"/>
<path d="M272.731 251.984C272.782 251.984 273.156 256.422 273.156 256.422H259.539L258.546 251.475L272.731 251.984Z" fill="#263238"/>
<path d="M242.791 19.8546C242.656 20.3891 242.257 20.7624 241.943 20.703C241.629 20.6436 241.434 20.1346 241.57 19.6001C241.705 19.0656 242.104 18.6838 242.418 18.7517C242.732 18.8196 242.927 19.3201 242.791 19.8546Z" fill="#263238"/>
<path d="M236.844 18.5485C236.709 19.083 236.31 19.4563 235.996 19.3969C235.682 19.3375 235.487 18.82 235.623 18.2855C235.758 17.751 236.157 17.3777 236.471 17.4371C236.785 17.4965 236.98 18.014 236.844 18.5485Z" fill="#263238"/>
<path d="M238.668 19.2271C237.615 20.7278 236.369 22.0828 234.961 23.2569C235.665 24.3429 237.353 24.292 237.353 24.292L238.668 19.2271Z" fill="#A02724"/>
<path d="M244.861 19.083C244.815 19.0675 244.773 19.042 244.738 19.0082C244.703 18.9745 244.675 18.9334 244.658 18.8879C244.547 18.5092 244.344 18.1639 244.067 17.8826C243.79 17.6014 243.448 17.393 243.071 17.2759C243.031 17.2671 242.992 17.25 242.958 17.2257C242.924 17.2014 242.896 17.1704 242.874 17.1346C242.853 17.0988 242.839 17.059 242.833 17.0177C242.828 16.9763 242.831 16.9343 242.842 16.8942C242.868 16.8119 242.922 16.7416 242.996 16.6964C243.069 16.6512 243.156 16.634 243.241 16.6481C243.72 16.7866 244.157 17.0432 244.512 17.3946C244.866 17.7459 245.126 18.1806 245.269 18.6588C245.288 18.7163 245.292 18.7781 245.279 18.8373C245.266 18.8966 245.236 18.9512 245.194 18.995C245.152 19.0388 245.099 19.0702 245.04 19.0857C244.982 19.1012 244.92 19.1003 244.861 19.083Z" fill="#263238"/>
<path d="M257.825 14.0009C257.842 13.9325 257.875 13.8694 257.923 13.8174C257.97 13.7655 258.03 13.7265 258.097 13.704C258.632 13.5298 259.115 13.2254 259.503 12.8181C259.891 12.4109 260.171 11.9136 260.32 11.3709C260.331 11.3133 260.355 11.2587 260.389 11.2105C260.422 11.1622 260.466 11.1214 260.516 11.0904C260.566 11.0595 260.621 11.039 260.68 11.0304C260.738 11.0217 260.797 11.025 260.854 11.04C260.974 11.0685 261.078 11.1413 261.145 11.2437C261.213 11.3461 261.239 11.4704 261.219 11.5915C261.042 12.2791 260.695 12.9112 260.21 13.43C259.726 13.9488 259.119 14.3376 258.445 14.5609C258.329 14.6026 258.201 14.5977 258.089 14.547C257.976 14.4963 257.888 14.404 257.842 14.2894C257.807 14.1972 257.801 14.0966 257.825 14.0009Z" fill="#263238"/>
<path d="M261.728 15.5453C261.662 15.5659 261.592 15.5705 261.524 15.5587C261.456 15.5469 261.392 15.519 261.337 15.4774C260.905 15.1184 260.391 14.8723 259.84 14.7612C259.289 14.6501 258.719 14.6776 258.181 14.8411C258.125 14.8624 258.065 14.872 258.005 14.8693C257.945 14.8665 257.887 14.8516 257.833 14.8254C257.779 14.7992 257.731 14.7623 257.691 14.7168C257.652 14.6714 257.623 14.6184 257.604 14.5612C257.567 14.4462 257.575 14.3214 257.625 14.2115C257.675 14.1016 257.765 14.0145 257.876 13.9673C258.553 13.7469 259.275 13.7005 259.975 13.8325C260.675 13.9644 261.33 14.2705 261.88 14.7224C261.974 14.8004 262.035 14.9111 262.051 15.0323C262.067 15.1535 262.036 15.2762 261.965 15.3756C261.908 15.458 261.824 15.518 261.728 15.5453Z" fill="#263238"/>
<path d="M234.732 16.1726C234.686 16.1568 234.644 16.1339 234.605 16.1048C234.575 16.0748 234.551 16.0391 234.534 15.9998C234.518 15.9605 234.509 15.9183 234.509 15.8757C234.509 15.8331 234.518 15.7909 234.534 15.7516C234.551 15.7123 234.575 15.6766 234.605 15.6466C234.944 15.2593 235.37 14.957 235.847 14.7639C236.324 14.5709 236.84 14.4926 237.354 14.5352C237.395 14.5411 237.434 14.5556 237.469 14.5776C237.504 14.5996 237.534 14.6288 237.558 14.6631C237.581 14.6975 237.596 14.7363 237.604 14.7771C237.611 14.8179 237.61 14.8598 237.6 14.9001C237.585 14.985 237.538 15.0609 237.468 15.1116C237.398 15.1623 237.312 15.1838 237.226 15.1715C236.82 15.1438 236.413 15.2114 236.037 15.369C235.661 15.5266 235.328 15.7699 235.063 16.0793C235.022 16.1237 234.969 16.1559 234.911 16.1723C234.852 16.1888 234.791 16.1889 234.732 16.1726Z" fill="#263238"/>
<path d="M266.148 51.3389L257.588 56.5056C257.588 56.5056 268.26 77.4016 267.081 80.6679C265.469 85.1135 263.026 94.8701 260.175 99.7738C260.447 100.851 262.016 103.354 262.949 103.804C269.737 99.1375 277.228 84.0955 277.219 79.845C277.211 70.1563 266.148 51.3389 266.148 51.3389Z" fill="#B55B52"/>
<path d="M262.135 42.0999C268.49 43.0331 274.759 65.2102 274.759 65.2102L260.981 72.8033C260.981 72.8033 255.569 62.2578 253.023 54.4271C250.325 46.2146 255.314 41.1072 262.135 42.0999Z" fill="#8FFE09"/>
<path opacity="0.4" d="M262.135 42.0999C268.49 43.0331 274.759 65.2102 274.759 65.2102L260.981 72.8033C260.981 72.8033 255.569 62.2578 253.023 54.4271C250.325 46.2146 255.314 41.1072 262.135 42.0999Z" fill="white"/>
<path d="M261.83 265.737C261.372 265.776 260.916 265.653 260.54 265.389C260.424 265.284 260.337 265.151 260.286 265.002C260.236 264.854 260.224 264.695 260.252 264.541C260.257 264.446 260.287 264.355 260.339 264.276C260.391 264.197 260.464 264.133 260.549 264.091C261.304 263.709 263.433 265.05 263.671 265.202C263.696 265.221 263.715 265.245 263.727 265.274C263.739 265.302 263.743 265.333 263.739 265.364C263.731 265.394 263.715 265.422 263.692 265.445C263.67 265.467 263.642 265.483 263.611 265.491C263.029 265.642 262.431 265.724 261.83 265.737ZM260.888 264.337C260.817 264.331 260.747 264.346 260.684 264.38C260.633 264.38 260.583 264.439 260.574 264.566C260.552 264.67 260.558 264.778 260.591 264.879C260.623 264.981 260.682 265.072 260.761 265.143C261.117 265.457 261.999 265.499 263.153 265.27C262.456 264.805 261.67 264.488 260.846 264.337H260.888Z" fill="#8FFE09"/>
<path d="M263.527 265.482H263.459C262.772 265.101 261.49 263.616 261.669 262.861C261.699 262.742 261.768 262.637 261.865 262.561C261.961 262.486 262.08 262.445 262.203 262.445C262.323 262.429 262.445 262.439 262.56 262.475C262.676 262.51 262.783 262.569 262.873 262.649C263.628 263.294 263.722 265.245 263.722 265.33C263.721 265.358 263.714 265.386 263.701 265.411C263.688 265.436 263.669 265.458 263.645 265.474C263.608 265.491 263.566 265.494 263.527 265.482ZM262.296 262.742H262.22C262.016 262.742 261.991 262.869 261.983 262.903C261.872 263.353 262.687 264.473 263.357 264.999C263.341 264.259 263.105 263.541 262.678 262.937C262.63 262.884 262.571 262.84 262.505 262.81C262.44 262.779 262.369 262.762 262.296 262.759V262.742Z" fill="#8FFE09"/>
<path d="M221.106 265.737C220.534 265.792 219.961 265.645 219.486 265.321C219.38 265.224 219.299 265.102 219.253 264.965C219.207 264.828 219.197 264.682 219.223 264.541C219.231 264.451 219.262 264.365 219.312 264.291C219.363 264.217 219.431 264.157 219.511 264.116C220.36 263.658 223.007 265.033 223.304 265.194C223.333 265.21 223.357 265.235 223.371 265.266C223.385 265.296 223.388 265.331 223.38 265.364C223.374 265.397 223.358 265.428 223.333 265.453C223.309 265.477 223.278 265.493 223.244 265.499C222.54 265.642 221.825 265.722 221.106 265.737ZM219.953 264.337C219.847 264.331 219.742 264.351 219.647 264.396C219.617 264.414 219.591 264.439 219.572 264.468C219.553 264.498 219.541 264.531 219.537 264.566C219.52 264.66 219.527 264.756 219.557 264.846C219.586 264.936 219.638 265.018 219.707 265.084C220.105 265.448 221.217 265.516 222.727 265.27C221.866 264.802 220.93 264.486 219.961 264.337H219.953Z" fill="#8FFE09"/>
<path d="M223.228 265.483H223.16C222.362 265.118 220.81 263.659 220.971 262.887C221.013 262.709 221.149 262.488 221.59 262.446C221.743 262.429 221.897 262.445 222.043 262.492C222.189 262.539 222.324 262.615 222.439 262.717C223.287 263.421 223.363 265.262 223.363 265.322C223.366 265.35 223.361 265.378 223.349 265.403C223.337 265.428 223.318 265.45 223.296 265.466C223.275 265.477 223.251 265.483 223.228 265.483ZM221.709 262.743H221.607C221.319 262.743 221.293 262.887 221.285 262.921C221.192 263.387 222.235 264.533 223.041 265.033C223.008 264.271 222.731 263.54 222.252 262.946C222.098 262.823 221.906 262.757 221.709 262.76V262.743Z" fill="#8FFE09"/>
<path d="M261.329 99.4686L254.915 98.9766L257.961 106.086C257.961 106.086 263.594 106.332 264.748 102.022L261.329 99.4686Z" fill="#B55B52"/>
<path d="M250.342 103.88L251.751 106.748C251.982 107.219 252.387 107.582 252.881 107.76C253.376 107.937 253.919 107.915 254.398 107.698L257.961 106.086L254.915 98.9766L251.114 101.259C250.68 101.519 250.36 101.934 250.217 102.419C250.074 102.905 250.119 103.426 250.342 103.88Z" fill="#B55B52"/>
<path d="M194.06 96.5835C191.884 97.3632 189.617 97.8593 187.315 98.0597C187.254 98.0622 187.195 98.0777 187.142 98.1053C187.088 98.1329 187.041 98.1719 187.004 98.2195C186.966 98.2672 186.94 98.3223 186.927 98.3812C186.913 98.44 186.912 98.5012 186.925 98.5603C187.007 98.8637 187.167 99.1405 187.389 99.3636C187.61 99.5867 187.886 99.7484 188.189 99.8329C188.901 99.9941 190.734 100.342 191.133 100.418C191.192 100.43 191.247 100.456 191.294 100.495C192.413 101.357 193.755 101.881 195.163 102.005C196.808 102.005 195.163 98.0258 194.569 96.7871C194.528 96.6931 194.451 96.619 194.356 96.5809C194.261 96.5428 194.154 96.5437 194.06 96.5835Z" fill="#B55B52"/>
<path d="M52.4704 37.7393C53.2085 42.2273 53.8448 50.4143 50.6379 53.2904C53.0429 57.0888 56.8358 59.7981 61.2089 60.8411C68.2336 57.2778 64.4837 53.7061 64.4837 53.7061C59.5461 52.3741 59.7836 48.6921 60.7593 45.2221L52.4704 37.7393Z" fill="#FFC3BD"/>
<path d="M42.349 64.5489C41.823 68.8418 41.1443 73.0329 40.3044 77.2748C39.4645 81.5168 38.5482 85.674 37.3265 89.865C36.7072 91.9691 35.9945 94.107 35.2225 96.0583C34.4504 98.0097 33.6784 100.029 32.8639 101.997C31.2435 105.925 29.5297 109.794 27.6718 113.629L24.0915 112.348C25.0502 108.224 26.1277 104.135 27.2391 100.071C28.3505 96.0074 29.5722 91.9691 30.4545 88.0749C31.3368 84.1808 32.1513 80.0152 32.813 75.9174C33.4748 71.8197 34.1281 67.671 34.7304 63.6072L42.349 64.5489Z" fill="#FFC3BD"/>
<path d="M37.6324 54.6141C34.646 55.751 31.6936 67.8236 31.6936 67.8236L43.5712 76.8506C43.5712 76.8506 47.8131 65.0918 46.286 61.2401C44.6401 57.2272 41.0429 53.3161 37.6324 54.6141Z" fill="#8FFE09"/>
<path d="M24.821 110.88L19.4082 116.929L27.0438 117.149C27.0438 117.149 29.4957 112.992 27.8922 110.362L24.821 110.88Z" fill="#FFC3BD"/>
<path d="M18.993 123.224L25.3899 123.071L27.0442 117.149L19.4087 116.929L18.993 123.224Z" fill="#FFC3BD"/>
<path d="M77.8293 59.5516C77.999 64.3026 77.1761 75.3912 72.179 101.216L41.6877 100.309C42.5361 87.9135 42.8075 80.261 37.6323 54.6139C41.9302 53.8611 46.2768 53.4188 50.6382 53.2904C55.2575 53.1011 59.8845 53.24 64.4841 53.7062C68.0134 54.1304 71.8142 54.8685 74.317 55.403C75.2816 55.603 76.1515 56.1202 76.788 56.8721C77.4246 57.6239 77.7911 58.5672 77.8293 59.5516Z" fill="#8FFE09"/>
<path d="M77.388 60.9604C78.8133 65.0497 80.0859 69.1135 81.2821 73.2452C82.4784 77.3769 83.6067 81.5086 84.6163 85.6912L84.9896 87.2607L85.1763 88.0498L85.2696 88.44C85.2696 88.44 85.2696 88.3467 85.2696 88.3552C85.2696 88.3637 85.2696 88.5249 85.5071 88.7624C85.7391 89.0647 85.9944 89.3484 86.2707 89.6108C87.7058 90.9003 89.2468 92.0667 90.8775 93.0977C94.2711 95.329 97.9786 97.433 101.618 99.4777L100.176 102.998C95.9623 101.764 91.8588 100.18 87.9081 98.2644C85.813 97.2606 83.8236 96.0498 81.9693 94.6503C81.4308 94.2229 80.9207 93.761 80.4422 93.2674C79.8147 92.612 79.2988 91.8583 78.9151 91.0361C78.7984 90.7598 78.6992 90.4765 78.6182 90.1877L78.4994 89.8144L78.2788 89.0593L77.8207 87.5407C76.5933 83.5193 75.3377 79.4951 74.0538 75.468L70.0918 63.4293L77.388 60.9604Z" fill="#FFC3BD"/>
<path d="M74.5207 55.4371C80.1371 56.6333 81.9527 68.4685 81.9527 68.4685L72.3064 77.2833C72.3064 77.2833 64.4078 63.8702 66.2828 60.1627C68.2341 56.3025 69.9564 54.4699 74.5207 55.4371Z" fill="#8FFE09"/>
<path d="M99.7855 98.7307L107.421 101.615L101.228 105.722C101.228 105.722 97.5627 103.55 97.8342 100.512L99.7855 98.7307Z" fill="#FFC3BD"/>
<path d="M110.408 105.611L105.708 108.572L101.177 105.721L107.371 101.615L110.408 105.611Z" fill="#FFC3BD"/>
<path d="M69.3624 29.6289C69.4133 30.2313 69.7781 30.6979 70.2108 30.664C70.6435 30.6301 70.8895 30.1125 70.8386 29.5102C70.7877 28.9078 70.4314 28.4412 69.9902 28.4751C69.549 28.5091 69.32 29.0011 69.3624 29.6289Z" fill="#263238"/>
<path d="M69.8203 28.5003L71.2371 27.9658C71.2371 27.9658 70.5838 29.1536 69.8203 28.5003Z" fill="#263238"/>
<path d="M69.9897 30.9014C70.6402 32.236 71.4709 33.4749 72.4585 34.5834C72.1681 34.8279 71.8279 35.0061 71.4616 35.1057C71.0953 35.2054 70.7117 35.224 70.3375 35.1603L69.9897 30.9014Z" fill="#ED847E"/>
<path d="M67.0203 28.2038C67.0951 28.2081 67.1695 28.1892 67.2333 28.1498C67.297 28.1103 67.3471 28.0521 67.3766 27.9832C67.9959 26.4561 70.0575 25.964 70.0745 25.9555C70.1252 25.9508 70.1744 25.9353 70.2186 25.91C70.2628 25.8848 70.3011 25.8503 70.3309 25.8089C70.3606 25.7676 70.3812 25.7204 70.3912 25.6704C70.4011 25.6204 70.4003 25.5689 70.3886 25.5193C70.377 25.4697 70.3549 25.4232 70.3237 25.3829C70.2926 25.3426 70.2532 25.3094 70.2081 25.2856C70.1631 25.2618 70.1134 25.248 70.0626 25.245C70.0117 25.242 69.9608 25.25 69.9133 25.2683C69.8115 25.2683 67.4699 25.8537 66.7149 27.7117C66.6969 27.7551 66.6876 27.8017 66.6877 27.8487C66.6878 27.8957 66.6971 27.9423 66.7153 27.9856C66.7334 28.029 66.76 28.0684 66.7934 28.1014C66.8268 28.1345 66.8664 28.1606 66.91 28.1783C66.9445 28.1947 66.9821 28.2034 67.0203 28.2038Z" fill="#263238"/>
<path d="M48.7542 29.0687C49.8147 36.4498 50.1031 39.5973 54.167 43.0927C60.2669 48.3612 69.0987 45.4343 70.2865 37.892C71.33 31.1049 69.4381 20.169 61.9128 17.8105C60.2602 17.2825 58.5001 17.1857 56.7995 17.5291C55.099 17.8725 53.5144 18.6447 52.1961 19.7726C50.8779 20.9005 49.8697 22.3465 49.2673 23.9735C48.6649 25.6004 48.4883 27.3543 48.7542 29.0687Z" fill="#FFC3BD"/>
<path d="M61.0395 15.7745C57.7392 11.7361 42.2136 11.9652 46.6168 22.3665C40.0756 23.2658 40.152 29.6203 40.7459 34.4137C41.3397 39.2072 35.7318 38.3079 34.7647 44.1449C33.7975 49.9818 36.2748 50.5587 32.1686 55.174C28.0623 59.7893 33.9841 69.3592 41.7724 66.8904C49.5607 64.4215 55.754 69.2744 65.4427 67.3485C75.1314 65.4226 76.0646 57.6174 73.9267 53.2312C71.9414 49.1334 69.1926 48.5311 69.778 44.62C70.6264 38.8593 66.8595 33.3023 63.4914 31.5377C67.5467 27.6775 79.5685 16.0035 61.0395 15.7745Z" fill="#263238"/>
<path d="M63.8559 32.5641C64.0979 33.0716 64.4445 33.5222 64.8729 33.8862C65.3013 34.2503 65.8019 34.5197 66.3417 34.6766C67.7246 35.033 68.3694 33.5143 67.9452 32.0042C67.5719 30.6383 66.3926 28.8142 65.0267 29.1451C63.6608 29.476 63.1941 31.2322 63.8559 32.5641Z" fill="#FFC3BD"/>
<path d="M10.2543 263.379C9.60995 263.371 8.98772 263.143 8.48959 262.735C8.38175 262.616 8.30451 262.473 8.26459 262.318C8.22467 262.162 8.22327 262 8.26053 261.844C8.27532 261.746 8.31516 261.655 8.37614 261.577C8.43712 261.5 8.51714 261.44 8.60837 261.403C9.57554 260.995 12.4007 262.819 12.7146 263.023C12.7463 263.043 12.7708 263.073 12.7845 263.108C12.7982 263.143 12.8005 263.182 12.791 263.218C12.7837 263.254 12.7649 263.287 12.7373 263.312C12.7098 263.336 12.675 263.351 12.6383 263.354C11.8461 263.436 11.048 263.444 10.2543 263.379ZM9.08347 261.683C8.97262 261.65 8.85496 261.65 8.74412 261.683C8.70655 261.696 8.67367 261.72 8.64954 261.751C8.62542 261.783 8.6111 261.821 8.60837 261.861C8.58289 261.963 8.58271 262.069 8.60785 262.171C8.63299 262.273 8.68267 262.368 8.7526 262.446C9.16831 262.896 10.39 263.099 12.0698 262.989C11.1546 262.393 10.1447 261.957 9.08347 261.7V261.683Z" fill="#8FFE09"/>
<path d="M12.6041 263.354C12.5792 263.361 12.5527 263.361 12.5278 263.354C11.6794 262.862 10.0844 261.072 10.305 260.24C10.3559 260.045 10.5256 259.807 11.0261 259.807C11.2028 259.806 11.3779 259.841 11.5402 259.911C11.7024 259.981 11.8481 260.085 11.9678 260.215C12.8162 261.063 12.8162 263.116 12.8162 263.201C12.8175 263.233 12.8093 263.264 12.7927 263.292C12.7761 263.319 12.7518 263.34 12.7229 263.354C12.684 263.364 12.643 263.364 12.6041 263.354ZM11.1279 260.138H11.0261C10.6952 260.138 10.6613 260.266 10.6528 260.308C10.5171 260.809 11.5861 262.191 12.4345 262.853C12.452 261.997 12.1997 261.157 11.7133 260.452C11.5649 260.277 11.3557 260.165 11.1279 260.138Z" fill="#8FFE09"/>
<path d="M12.0868 264.575H19.5951L23.4723 247.183H15.964L12.0868 264.575Z" fill="#FFC3BD"/>
<path d="M12.1121 262.887L20.4688 261.725C20.5353 261.711 20.604 261.712 20.67 261.728C20.7361 261.744 20.7979 261.773 20.8512 261.815C20.9045 261.857 20.948 261.911 20.9787 261.971C21.0094 262.032 21.0264 262.098 21.0288 262.166L21.5802 268.826C21.5819 269.19 21.4552 269.542 21.2224 269.821C20.9896 270.101 20.6656 270.289 20.3076 270.353C17.3891 270.709 15.9978 270.726 12.3242 271.244C9.28766 271.789 6.21817 272.132 3.13609 272.27C0.0479234 272.27 0.438186 269.157 1.8041 268.877C7.9465 267.613 8.76944 265.534 10.8395 263.566C11.1831 263.213 11.6278 262.976 12.1121 262.887Z" fill="#263238"/>
<g opacity="0.2">
<path d="M23.4722 247.183L21.47 256.151H13.9617L15.9554 247.183H23.4722Z" fill="black"/>
</g>
<path d="M41.6874 100.309C33.4495 111.94 28.6815 154.648 25.7206 177.513C22.6409 201.268 13.6055 254.437 13.6055 254.437H23.7862C23.7862 254.437 37.8102 200.572 43.1297 177.385C49.0091 151.798 61.2344 100.334 61.2344 100.334L41.6874 100.309Z" fill="#263238"/>
<path opacity="0.2" d="M50.1802 120.076C45.2171 135.076 45.005 154.012 45.5735 166.738C48.6277 153.563 52.4285 137.435 55.5167 124.369L50.1802 120.076Z" fill="black"/>
<path d="M62.0405 264.227C62.6801 264.284 63.3201 264.123 63.8561 263.769C63.9734 263.664 64.0639 263.532 64.12 263.384C64.176 263.237 64.1961 263.078 64.1785 262.921C64.1745 262.824 64.1449 262.73 64.0928 262.648C64.0406 262.566 63.9678 262.499 63.8816 262.454C62.9568 261.945 59.962 263.481 59.6396 263.65C59.608 263.67 59.5824 263.697 59.5659 263.73C59.5494 263.763 59.5426 263.8 59.5463 263.837C59.5514 263.874 59.5683 263.907 59.5943 263.933C59.6203 263.959 59.6541 263.976 59.6905 263.981C60.4645 264.136 61.2513 264.218 62.0405 264.227ZM63.3725 262.675C63.4897 262.667 63.6069 262.69 63.7119 262.743C63.7467 262.759 63.7757 262.786 63.7954 262.819C63.815 262.853 63.8243 262.891 63.8222 262.929C63.8404 263.034 63.8312 263.141 63.7955 263.24C63.7598 263.34 63.6988 263.429 63.6186 263.498C63.1689 263.914 61.9218 263.981 60.225 263.71C61.2057 263.184 62.271 262.834 63.3725 262.675Z" fill="#8FFE09"/>
<path d="M59.7077 263.965H59.784C60.6749 263.557 62.448 261.937 62.3292 261.088C62.3292 260.885 62.1511 260.639 61.659 260.588C61.4828 260.569 61.3047 260.587 61.1355 260.64C60.9664 260.692 60.8096 260.778 60.6749 260.893C59.7246 261.682 59.555 263.702 59.5465 263.786C59.5448 263.817 59.5508 263.849 59.5642 263.877C59.5775 263.905 59.5977 263.929 59.6228 263.948C59.6491 263.961 59.6784 263.967 59.7077 263.965ZM61.4978 260.919H61.6081C61.9305 260.919 61.9475 261.08 61.9559 261.122C62.0408 261.631 60.8361 262.904 59.9283 263.455C59.9997 262.603 60.3348 261.793 60.8869 261.139C61.0572 260.994 61.2742 260.916 61.4978 260.919Z" fill="#8FFE09"/>
<path d="M52.2243 264.575H59.741L59.3762 247.183H51.8594L52.2243 264.575Z" fill="#FFC3BD"/>
<path d="M60.471 263.71H52.0294C51.8841 263.707 51.7426 263.757 51.6315 263.85C51.5205 263.944 51.4478 264.076 51.4271 264.219L50.4684 270.896C50.4492 271.066 50.4661 271.237 50.518 271.399C50.5699 271.561 50.6555 271.711 50.7694 271.837C50.8832 271.964 51.0226 272.065 51.1784 272.134C51.3342 272.203 51.5028 272.238 51.6731 272.237C54.617 272.186 56.0339 272.008 59.7413 272.008C62.0235 272.008 68.5816 272.245 71.7377 272.245C74.8937 272.245 75.0634 269.132 73.7484 268.852C67.8605 267.588 63.7034 265.84 61.7266 264.177C61.3751 263.88 60.9311 263.715 60.471 263.71Z" fill="#263238"/>
<g opacity="0.2">
<path d="M59.3678 247.183L59.5629 256.151H52.0461L51.8594 247.183H59.3678Z" fill="black"/>
</g>
<path d="M72.1787 101.217C72.1787 101.217 69.065 157.754 66.9186 180.567C64.6788 204.322 60.9798 254.378 60.9798 254.378H50.7991C50.7991 254.378 48.5763 203.355 50.2306 179.999C52.0292 154.547 45.3608 119.203 49.798 100.521C53.9721 100.555 72.1787 101.217 72.1787 101.217Z" fill="#263238"/>
<path d="M49.9677 254.776H61.8877L62.4816 250.093L49.4841 251.018L49.9677 254.776Z" fill="#8FFE09"/>
<path d="M12.9013 254.776H24.8128L26.0091 249.796L12.7401 251.026L12.9013 254.776Z" fill="#8FFE09"/>
<path d="M41.2463 98.5101L40.3979 101.217C40.2876 101.42 40.5252 101.649 40.8815 101.658L72.2722 102.591C72.5522 102.591 72.7812 102.472 72.8067 102.294L73.163 99.5791C73.163 99.384 72.9509 99.2228 72.654 99.2143L41.7723 98.2895C41.6731 98.2784 41.5727 98.2928 41.4806 98.3314C41.3886 98.3701 41.3079 98.4316 41.2463 98.5101Z" fill="#8FFE09"/>
<path d="M45.3271 102.082H44.4787C44.309 102.082 44.1902 101.989 44.1987 101.887L44.6993 98.3491C44.6993 98.2473 44.8605 98.1709 45.0217 98.1709H45.8701C46.0398 98.1709 46.1585 98.2642 46.15 98.366L45.6495 101.904C45.641 102.006 45.4883 102.09 45.3271 102.082Z" fill="#263238"/>
<path d="M69.956 102.82H69.1076C68.9379 102.82 68.8192 102.727 68.8361 102.617L69.3282 99.0872C69.3282 98.9854 69.4894 98.9005 69.6506 98.909H70.499C70.6602 98.909 70.7875 99.0024 70.7705 99.1042L70.2784 102.633C70.2699 102.744 70.0918 102.82 69.956 102.82Z" fill="#263238"/>
<path d="M57.6458 102.447H56.7974C56.6362 102.447 56.509 102.345 56.5259 102.243L57.018 98.7137C57.018 98.6034 57.1792 98.5271 57.3489 98.5356H58.1973C58.3585 98.5356 58.4857 98.6289 58.4688 98.7392L57.9767 102.268C57.9512 102.37 57.807 102.455 57.6458 102.447Z" fill="#263238"/>
</svg>
