<svg width="16" height="17" viewBox="0 0 16 17" fill="none" xmlns="http://www.w3.org/2000/svg">
<path d="M2.5555 10.5657L3.04286 10.454L2.5555 10.5657ZM2.5555 6.63551L3.04286 6.74721L2.5555 6.63551ZM13.4445 6.63551L12.9571 6.74722L13.4445 6.63551ZM13.4445 10.5657L12.9571 10.454L13.4445 10.5657ZM9.92008 14.1726L10.0368 14.6588L9.92008 14.1726ZM6.07988 14.1726L6.1966 13.6865L6.07988 14.1726ZM6.07988 3.02855L6.1966 3.51474L6.07988 3.02855ZM9.92008 3.02855L10.0368 2.54237L9.92008 3.02855ZM5.88003 2.40002C5.88003 2.12388 5.65618 1.90002 5.38003 1.90002C5.10389 1.90002 4.88003 2.12388 4.88003 2.40002H5.88003ZM4.88003 4.07585C4.88003 4.352 5.10389 4.57585 5.38003 4.57585C5.65618 4.57585 5.88003 4.352 5.88003 4.07585H4.88003ZM11.1199 2.40002C11.1199 2.12388 10.8961 1.90002 10.6199 1.90002C10.3438 1.90002 10.1199 2.12388 10.1199 2.40002H11.1199ZM10.1199 4.07585C10.1199 4.352 10.3438 4.57585 10.6199 4.57585C10.8961 4.57585 11.1199 4.352 11.1199 4.07585H10.1199ZM3.04286 10.454C2.76346 9.23498 2.76346 7.96621 3.04286 6.74721L2.06813 6.52381C1.75504 7.88984 1.75504 9.31135 2.06813 10.6774L3.04286 10.454ZM12.9571 6.74722C13.2365 7.96621 13.2365 9.23498 12.9571 10.454L13.9318 10.6774C14.2449 9.31135 14.2449 7.88984 13.9318 6.52381L12.9571 6.74722ZM9.80336 13.6865C8.61716 13.9712 7.3828 13.9712 6.1966 13.6865L5.96317 14.6588C7.30281 14.9804 8.69715 14.9804 10.0368 14.6588L9.80336 13.6865ZM6.1966 3.51474C7.3828 3.22998 8.61716 3.22998 9.80336 3.51474L10.0368 2.54237C8.69715 2.22077 7.30281 2.22077 5.96317 2.54237L6.1966 3.51474ZM6.1966 13.6865C4.63736 13.3121 3.41177 12.0636 3.04286 10.454L2.06813 10.6774C2.51962 12.6472 4.02491 14.1935 5.96317 14.6588L6.1966 13.6865ZM10.0368 14.6588C11.9751 14.1935 13.4803 12.6472 13.9318 10.6774L12.9571 10.454C12.5882 12.0636 11.3626 13.3121 9.80336 13.6865L10.0368 14.6588ZM9.80336 3.51474C11.3626 3.88906 12.5882 5.13763 12.9571 6.74722L13.9318 6.52381C13.4803 4.55395 11.9751 3.00767 10.0368 2.54237L9.80336 3.51474ZM5.96317 2.54237C4.02491 3.00767 2.51962 4.55395 2.06813 6.52381L3.04286 6.74721C3.41177 5.13763 4.63736 3.88906 6.1966 3.51474L5.96317 2.54237ZM2.76009 6.41927H13.2399V5.41927H2.76009V6.41927ZM4.88003 2.40002V4.07585H5.88003V2.40002H4.88003ZM10.1199 2.40002V4.07585H11.1199V2.40002H10.1199Z" fill="#F5F6F7"/>
<path d="M9.67336 9.64365C9.81768 9.4098 9.89931 9.13051 9.89931 8.81264C9.89931 8.26659 9.68289 7.8153 9.31458 7.50931C8.95774 7.21284 8.49596 7.08264 8.03731 7.08264C7.57879 7.08264 7.11615 7.21274 6.75818 7.50836C6.38854 7.81362 6.16931 8.26491 6.16931 8.81264C6.16931 9.13331 6.25417 9.41243 6.39857 9.64489C6.1629 9.93564 6.03131 10.2992 6.03131 10.6966C6.03131 11.2161 6.22799 11.6762 6.61278 11.9976C6.98692 12.3101 7.48898 12.4506 8.03731 12.4506C8.58331 12.4506 9.08476 12.3098 9.45904 11.9981C9.84394 11.6775 10.0433 11.2177 10.0433 10.6966C10.0433 10.2988 9.91137 9.93465 9.67336 9.64365ZM8.03731 10.6706C7.91908 10.6706 7.87006 10.6398 7.8612 10.6326C7.85997 10.6316 7.85928 10.6309 7.85898 10.6306C7.85896 10.6306 7.85893 10.6305 7.85889 10.6304C7.8588 10.6302 7.85331 10.6188 7.85331 10.5886C7.85331 10.5745 7.85467 10.5651 7.85578 10.5599C7.8566 10.5559 7.85739 10.5537 7.85775 10.5528C7.85813 10.5525 7.85877 10.5519 7.85975 10.5511C7.86919 10.5435 7.91911 10.5126 8.03731 10.5126C8.15551 10.5126 8.20544 10.5435 8.21488 10.5511C8.21585 10.5519 8.21649 10.5525 8.21687 10.5528C8.21723 10.5537 8.21802 10.5559 8.21884 10.5599C8.21995 10.5651 8.22131 10.5745 8.22131 10.5886C8.22131 10.6188 8.21582 10.6302 8.21573 10.6304C8.21546 10.631 8.21551 10.6308 8.21578 10.6305C8.21602 10.6302 8.21551 10.6309 8.21342 10.6326C8.20456 10.6398 8.15554 10.6706 8.03731 10.6706Z" stroke="#F5F6F7"/>
</svg>
