<svg width="24" height="24" viewBox="0 0 24 24" fill="none" xmlns="http://www.w3.org/2000/svg">
<path fill-rule="evenodd" clip-rule="evenodd" d="M21 20C21 19.4477 20.5523 19 20 19L4 19C3.44772 19 3 19.4477 3 20C3 20.5523 3.44772 21 4 21L20 21C20.5523 21 21 20.5523 21 20Z" fill="#00DC41"/>
<path fill-rule="evenodd" clip-rule="evenodd" d="M5 14C5 15.6569 6.34315 17 8 17C9.65685 17 11 15.6569 11 14V6C11 4.34315 9.65685 3 8 3C6.34315 3 5 4.34315 5 6V14ZM8 15C7.44772 15 7 14.5523 7 14V6C7 5.44772 7.44772 5 8 5C8.55228 5 9 5.44772 9 6V14C9 14.5523 8.55228 15 8 15ZM13 14C13 15.6569 14.3431 17 16 17C17.6569 17 19 15.6569 19 14V10C19 8.34315 17.6569 7 16 7C14.3431 7 13 8.34315 13 10V14ZM16 15C15.4477 15 15 14.5523 15 14V10C15 9.44772 15.4477 9 16 9C16.5523 9 17 9.44772 17 10V14C17 14.5523 16.5523 15 16 15Z" fill="#00DC41"/>
</svg>
