<svg width="16" height="15" viewBox="0 0 16 15" fill="none" xmlns="http://www.w3.org/2000/svg">
<path d="M11.4303 7.70116C11.7017 6.54404 11.7017 5.3398 11.4303 4.18268C11.0544 2.58044 9.80339 1.3294 8.20115 0.953567C7.04403 0.682144 5.8398 0.682144 4.68268 0.953567C3.08044 1.3294 1.8294 2.58045 1.45357 4.18269C1.18214 5.3398 1.18214 6.54403 1.45357 7.70115C1.8294 9.30339 3.08044 10.5544 4.68269 10.9303C5.8398 11.2017 7.04403 11.2017 8.20115 10.9303M11.4303 7.70116C11.0544 9.3034 9.80339 10.5544 8.20115 10.9303M11.4303 7.70116C11.6012 6.97258 11.6645 6.22534 11.6202 5.48293C11.6828 5.49572 11.7453 5.50943 11.8077 5.52405C13.181 5.8462 14.2534 6.91852 14.5755 8.29187C14.8082 9.28369 14.8082 10.3159 14.5755 11.3077C14.2534 12.681 13.181 13.7534 11.8077 14.0755C10.8159 14.3082 9.78369 14.3082 8.79187 14.0755C7.41852 13.7534 6.3462 12.681 6.02405 11.3077C6.00943 11.2453 5.99572 11.1828 5.98293 11.1202C6.72533 11.1645 7.47258 11.1012 8.20115 10.9303" stroke="#91A7B4" stroke-width="1.5"/>
</svg>
