<svg width="24" height="24" viewBox="0 0 24 24" fill="none" xmlns="http://www.w3.org/2000/svg">
<path fill-rule="evenodd" clip-rule="evenodd" d="M17.3569 20.4456C19.8824 18.8404 21.6391 16.1335 21.9505 13.0013C19.3663 13.0105 17.4497 13.0833 15.557 13.6531C16.3697 15.7686 16.9709 18.005 17.3569 20.4456ZM13.6949 14.383C11.6566 15.3712 9.37679 17.0978 6.24199 20.1769C7.86997 21.3254 9.8562 22 12 22C13.2216 22 14.3921 21.7809 15.4743 21.38C15.1192 18.8498 14.5276 16.5535 13.6949 14.383ZM14.7783 11.8008C17.0449 11.0827 19.276 11.0084 21.9507 11.0009C21.7731 9.2103 21.1232 7.55866 20.1273 6.17226C18.1435 7.70674 16.1205 8.95041 13.8293 9.88797C14.1665 10.5178 14.4829 11.1545 14.7783 11.8008ZM11.9271 10.5748C12.2809 11.2222 12.6105 11.8756 12.9162 12.5383C10.5333 13.6744 8.01868 15.6156 4.72628 18.8625C3.0361 17.0716 2 14.6568 2 12L2 11.9916C5.92271 11.925 9.12157 11.4591 11.9271 10.5748ZM12.8277 8.13514C14.9834 7.2831 16.8941 6.13315 18.8014 4.66908C17.0169 3.01275 14.6267 2 12 2C10.8851 2 9.81273 2.18247 8.81125 2.51917C10.3405 4.39871 11.6804 6.24599 12.8277 8.13514ZM6.92979 3.37882C8.44524 5.21314 9.76388 6.99508 10.889 8.80035C8.46507 9.51251 5.66455 9.9132 2.20261 9.98738C2.77743 7.1743 4.53338 4.79122 6.92979 3.37882Z" fill="#343B45"/>
</svg>
