<svg width="36" height="36" viewBox="0 0 36 36" fill="none" xmlns="http://www.w3.org/2000/svg">
<path fill-rule="evenodd" clip-rule="evenodd" d="M3.49047 8.45704C3 9.41965 3 10.6798 3 13.2V22.8C3 25.3202 3 26.5804 3.49047 27.543C3.9219 28.3897 4.61031 29.0781 5.45704 29.5095C6.41965 30 7.67976 30 10.2 30H25.8C28.3202 30 29.5804 30 30.543 29.5095C31.3897 29.0781 32.0781 28.3897 32.5095 27.543C33 26.5804 33 25.3202 33 22.8V13.2C33 10.6798 33 9.41965 32.5095 8.45704C32.0781 7.61031 31.3897 6.9219 30.543 6.49047C29.5804 6 28.3202 6 25.8 6H10.2C7.67976 6 6.41965 6 5.45704 6.49047C4.61031 6.9219 3.9219 7.61031 3.49047 8.45704ZM11.3485 12.2631C10.6654 11.7944 9.7317 11.9683 9.26307 12.6515C8.79444 13.3346 8.96833 14.2683 9.65147 14.7369L15.4544 18.7177C16.9883 19.77 19.0117 19.77 20.5456 18.7177L26.3485 14.7369C27.0317 14.2683 27.2056 13.3346 26.7369 12.6515C26.2683 11.9683 25.3346 11.7944 24.6515 12.2631L18.8485 16.2439C18.3372 16.5946 17.6628 16.5946 17.1515 16.2439L11.3485 12.2631Z" fill="#4DF986"/>
</svg>
