<svg width="20" height="20" viewBox="0 0 20 20" fill="none" xmlns="http://www.w3.org/2000/svg">
<path fill-rule="evenodd" clip-rule="evenodd" d="M10.8333 16.6667C10.8333 16.2064 10.4602 15.8333 10 15.8333L7.33333 15.8333C6.61952 15.8333 6.13427 15.8327 5.7592 15.802C5.39385 15.7722 5.20702 15.7181 5.07668 15.6517C4.76308 15.4919 4.50811 15.2369 4.34832 14.9233C4.28191 14.793 4.22781 14.6061 4.19796 14.2408C4.16732 13.8657 4.16667 13.3805 4.16667 12.6667L4.16667 7.33333C4.16667 6.61952 4.16731 6.13427 4.19796 5.7592C4.22781 5.39385 4.28191 5.20702 4.34832 5.07668C4.50811 4.76308 4.76308 4.50811 5.07668 4.34832C5.20702 4.28191 5.39385 4.22781 5.7592 4.19796C6.13427 4.16731 6.61952 4.16667 7.33333 4.16667L10 4.16667C10.4602 4.16667 10.8333 3.79357 10.8333 3.33333C10.8333 2.8731 10.4602 2.5 10 2.5L7.2989 2.5C6.6281 2.49999 6.07447 2.49998 5.62348 2.53683C5.15506 2.5751 4.72448 2.65724 4.32003 2.86331C3.69283 3.18289 3.18289 3.69282 2.86331 4.32003C2.65724 4.72448 2.5751 5.15506 2.53683 5.62348C2.49998 6.07448 2.49999 6.62812 2.5 7.29894V12.7011C2.49999 13.3719 2.49998 13.9255 2.53683 14.3765C2.5751 14.8449 2.65724 15.2755 2.86331 15.68C3.18289 16.3072 3.69283 16.8171 4.32003 17.1367C4.72448 17.3428 5.15506 17.4249 5.62348 17.4632C6.07447 17.5 6.62811 17.5 7.29892 17.5H10C10.4602 17.5 10.8333 17.1269 10.8333 16.6667Z" fill="white"/>
<path d="M16.6665 10.8332C17.1267 10.8332 17.4998 10.4601 17.4998 9.99984C17.4998 9.5396 17.1267 9.1665 16.6665 9.1665H9.51168L10.5891 8.08909C10.9145 7.76366 10.9145 7.23602 10.5891 6.91058C10.2637 6.58514 9.73602 6.58514 9.41058 6.91058L6.91058 9.41058C6.58514 9.73602 6.58514 10.2637 6.91058 10.5891L9.41058 13.0891C9.73602 13.4145 10.2637 13.4145 10.5891 13.0891C10.9145 12.7637 10.9145 12.236 10.5891 11.9106L9.51168 10.8332H16.6665Z" fill="white"/>
</svg>
