<svg width="96" height="32" viewBox="0 0 96 32" fill="none" xmlns="http://www.w3.org/2000/svg">
<path fill-rule="evenodd" clip-rule="evenodd" d="M12.8 32V22C12.8 21.3373 12.2627 20.8 11.6 20.8H7.6C6.93726 20.8 6.4 21.3373 6.4 22V32H1.2C0.537259 32 0 31.4627 0 30.8V0H32V30.8C32 31.4627 31.4627 32 30.8 32H25.6V22C25.6 21.3373 25.0627 20.8 24.4 20.8H20.4C19.7373 20.8 19.2 21.3373 19.2 22V32H12.8ZM25.6 6.4V14.4H6.4V6.4H25.6Z" fill="#FEFEFF"/>
<path d="M52.594 4.6H54.55V13.42L48.742 8.272V13H46.798V4.18L52.594 9.328V4.6ZM57.6693 13V11.332H61.9053V13H57.6693ZM57.6693 6.268V4.6H61.9053V6.268H57.6693ZM57.6693 9.4V7.768H61.6653V9.4H57.6693ZM56.3253 4.6H58.2693V13H56.3253V4.6ZM65.6558 9.196H67.7558L70.3838 13H68.0078L65.6558 9.196ZM63.5558 4.6H65.5838V13H63.5558V4.6ZM64.8278 6.316V4.6H66.6158C67.3358 4.6 67.9358 4.716 68.4158 4.948C68.8958 5.18 69.2598 5.504 69.5078 5.92C69.7558 6.328 69.8798 6.804 69.8798 7.348C69.8798 7.884 69.7558 8.36 69.5078 8.776C69.2598 9.184 68.8958 9.504 68.4158 9.736C67.9358 9.968 67.3358 10.084 66.6158 10.084H64.8278V8.512H66.4718C66.7438 8.512 66.9758 8.472 67.1678 8.392C67.3678 8.304 67.5198 8.18 67.6238 8.02C67.7278 7.852 67.7798 7.652 67.7798 7.42C67.7798 7.188 67.7278 6.992 67.6238 6.832C67.5198 6.664 67.3678 6.536 67.1678 6.448C66.9758 6.36 66.7438 6.316 66.4718 6.316H64.8278ZM74.8413 9.616L76.8933 4.6H79.2693L74.8413 13.528L70.4253 4.6H72.7893L74.8413 9.616ZM80.2742 11.38L80.4182 9.832H84.5822L84.7142 11.38H80.2742ZM82.4702 7.684L81.2942 10.396L81.3902 10.84L80.3462 13H78.0542L82.4702 4.072L86.8982 13H84.5942L83.5862 10.924L83.6582 10.408L82.4702 7.684ZM46.7725 20.412V18.6H53.4205V20.412H51.1045V27H49.0765V20.412H46.7725ZM56.439 23.196H58.539L61.167 27H58.791L56.439 23.196ZM54.339 18.6H56.367V27H54.339V18.6ZM55.611 20.316V18.6H57.399C58.119 18.6 58.719 18.716 59.199 18.948C59.679 19.18 60.043 19.504 60.291 19.92C60.539 20.328 60.663 20.804 60.663 21.348C60.663 21.884 60.539 22.36 60.291 22.776C60.043 23.184 59.679 23.504 59.199 23.736C58.719 23.968 58.119 24.084 57.399 24.084H55.611V22.512H57.255C57.527 22.512 57.759 22.472 57.951 22.392C58.151 22.304 58.303 22.18 58.407 22.02C58.511 21.852 58.563 21.652 58.563 21.42C58.563 21.188 58.511 20.992 58.407 20.832C58.303 20.664 58.151 20.536 57.951 20.448C57.759 20.36 57.527 20.316 57.255 20.316H55.611ZM63.4285 25.38L63.5725 23.832H67.7365L67.8685 25.38H63.4285ZM65.6245 21.684L64.4485 24.396L64.5445 24.84L63.5005 27H61.2085L65.6245 18.072L70.0525 27H67.7485L66.7405 24.924L66.8125 24.408L65.6245 21.684ZM70.9328 18.6H73.0208V27H70.9328V18.6ZM73.9328 27H72.2768V25.2H73.8608C74.1808 25.2 74.4888 25.16 74.7848 25.08C75.0888 25 75.3528 24.868 75.5768 24.684C75.8088 24.5 75.9928 24.256 76.1288 23.952C76.2648 23.64 76.3328 23.256 76.3328 22.8C76.3328 22.344 76.2648 21.964 76.1288 21.66C75.9928 21.348 75.8088 21.1 75.5768 20.916C75.3528 20.732 75.0888 20.6 74.7848 20.52C74.4888 20.44 74.1808 20.4 73.8608 20.4H72.2768V18.6H73.9328C74.8528 18.6 75.6488 18.772 76.3208 19.116C76.9928 19.46 77.5128 19.944 77.8808 20.568C78.2488 21.192 78.4328 21.936 78.4328 22.8C78.4328 23.656 78.2488 24.4 77.8808 25.032C77.5128 25.656 76.9928 26.14 76.3208 26.484C75.6488 26.828 74.8528 27 73.9328 27ZM81.0775 27V25.332H85.3135V27H81.0775ZM81.0775 20.268V18.6H85.3135V20.268H81.0775ZM81.0775 23.4V21.768H85.0735V23.4H81.0775ZM79.7335 18.6H81.6775V27H79.7335V18.6Z" fill="#FEFEFF"/>
</svg>
