<svg width="24" height="24" viewBox="0 0 24 24" fill="none" xmlns="http://www.w3.org/2000/svg">
<path d="M14.2865 8.22218L13.8708 8.49997L14.2865 8.22218C13.9844 7.76995 13.5549 7.41747 13.0524 7.20933C12.5499 7.00119 11.9969 6.94673 11.4635 7.05284C10.9301 7.15895 10.4401 7.42086 10.0555 7.80546C9.67086 8.19005 9.40895 8.68005 9.30284 9.2135C9.19673 9.74695 9.25119 10.2999 9.45933 10.8024C9.66747 11.3049 10.0199 11.7344 10.4722 12.0365C10.9244 12.3387 11.4561 12.5 12 12.5C12.7293 12.5 13.4288 12.2103 13.9445 11.6945C14.4603 11.1788 14.75 10.4793 14.75 9.75C14.75 9.2061 14.5887 8.67442 14.2865 8.22218ZM8.0655 18.4461L8.06458 18.4451C5.54013 15.546 4.25009 12.5381 4.25 9.75028C4.25241 7.69552 5.06972 5.7256 6.52266 4.27266C7.97554 2.81979 9.94534 2.00248 12 2C14.0547 2.00248 16.0245 2.81979 17.4773 4.27266C18.9303 5.72567 19.7477 7.6957 19.75 9.75057C19.7498 12.5381 18.4563 15.5459 15.9352 18.4454L15.9342 18.4465C14.8045 19.7534 13.5331 20.9309 12.1434 21.9571C12.1022 21.9849 12.0536 21.9998 12.0037 21.9998C11.9539 21.9998 11.9052 21.9849 11.8639 21.957C10.4715 20.9311 9.19758 19.7536 8.0655 18.4461ZM11.6909 21.2055L12 21.4486L12.3091 21.2055C13.1005 20.5831 14.8234 19.1296 16.3525 17.141C17.8766 15.159 19.25 12.5911 19.25 9.75C19.25 7.82718 18.4862 5.98311 17.1265 4.62348C15.7669 3.26384 13.9228 2.5 12 2.5C10.0772 2.5 8.23311 3.26384 6.87348 4.62348C5.51384 5.98311 4.75 7.82718 4.75 9.75C4.75 12.592 6.12343 15.1599 7.64752 17.1417C9.17665 19.1301 10.8996 20.5832 11.6909 21.2055ZM10.1944 7.04772C10.7289 6.69061 11.3572 6.5 12 6.5C12.862 6.5 13.6886 6.84241 14.2981 7.4519C14.9076 8.0614 15.25 8.88805 15.25 9.75C15.25 10.3928 15.0594 11.0211 14.7023 11.5556C14.3452 12.0901 13.8376 12.5066 13.2437 12.7526C12.6499 12.9986 11.9964 13.063 11.366 12.9376C10.7355 12.8122 10.1564 12.5026 9.7019 12.0481C9.24738 11.5936 8.93785 11.0145 8.81245 10.384C8.68705 9.7536 8.75141 9.10014 8.99739 8.50628C9.24338 7.91242 9.65994 7.40484 10.1944 7.04772Z" fill="black" stroke="#FFF"/>
</svg>
