<svg width="24" height="24" viewBox="0 0 24 24" fill="none" xmlns="http://www.w3.org/2000/svg">
<path fill-rule="evenodd" clip-rule="evenodd" d="M12 22C17.5228 22 22 17.5228 22 12C22 6.47715 17.5228 2 12 2C6.47715 2 2 6.47715 2 12C2 14.2512 2.74389 16.3287 3.99927 18L3.99977 20.7708C3.99989 21.4049 4.58261 21.8788 5.20344 21.7497L8 21.1679C9.22492 21.7031 10.5778 22 12 22ZM6.70509 13.707L9.45568 9.7776C9.76078 9.34174 10.3537 9.22109 10.8049 9.50307L13.4525 11.1578C13.7858 11.3661 14.2102 11.3599 14.5372 11.1419L16.7092 9.69385C16.8783 9.58113 17.1034 9.60343 17.2471 9.74711C17.3934 9.89337 17.4135 10.1235 17.2949 10.293L14.5443 14.2224C14.2392 14.6583 13.6463 14.7789 13.1951 14.4969L10.5475 12.8422C10.2142 12.6339 9.78981 12.6401 9.4628 12.8581L7.29077 14.3062C7.1217 14.4189 6.89657 14.3966 6.75289 14.2529C6.60663 14.1066 6.58647 13.8765 6.70509 13.707Z" fill="#343B45"/>
</svg>
