<svg width="24" height="24" viewBox="0 0 24 24" fill="none" xmlns="http://www.w3.org/2000/svg">
<path d="M4 21C4 20.4477 4.44772 20 5 20H19C19.5523 20 20 20.4477 20 21C20 21.5523 19.5523 22 19 22H5C4.44772 22 4 21.5523 4 21Z" fill="white"/>
<path fill-rule="evenodd" clip-rule="evenodd" d="M16.6545 4.58823C15.8734 3.80718 14.6071 3.80718 13.826 4.58822L6.91994 11.4943L6.00214 15.998L10.5057 15.0801L17.4118 8.17401C18.1929 7.39297 18.1929 6.12663 17.4118 5.34558L16.6545 4.58823ZM12.4118 3.17401C13.9739 1.61192 16.5066 1.61192 18.0687 3.17401L18.826 3.93137C20.3881 5.49347 20.3881 8.02613 18.826 9.58823L11.9199 16.4943C11.6425 16.7717 11.2896 16.9614 10.9051 17.0398L6.40157 17.9577C4.99701 18.244 3.75618 17.0032 4.04242 15.5986L4.96022 11.0949C5.03857 10.7104 5.22829 10.3575 5.50573 10.0801L12.4118 3.17401Z" fill="white"/>
</svg>
