<svg width="12" height="11" viewBox="0 0 12 11" fill="none" xmlns="http://www.w3.org/2000/svg">
<path fill-rule="evenodd" clip-rule="evenodd" d="M7.73265 0.700491C6.59302 0.433169 5.40698 0.43317 4.26735 0.700491C2.62157 1.08654 1.33654 2.37157 0.950491 4.01735C0.683169 5.15699 0.68317 6.34302 0.950492 7.48265C1.33654 9.12843 2.62158 10.4135 4.26736 10.7995C5.40699 11.0668 6.59302 11.0668 7.73265 10.7995C9.37843 10.4135 10.6635 9.12843 11.0495 7.48265C11.3168 6.34302 11.3168 5.15698 11.0495 4.01735C10.6635 2.37158 9.37843 1.08654 7.73265 0.700491ZM4.17969 5.61585C3.94538 5.38153 3.94538 5.00163 4.17969 4.76732L5.57573 3.37128C5.68826 3.25876 5.84087 3.19554 6 3.19554C6.15913 3.19554 6.31174 3.25876 6.42426 3.37128L7.8203 4.76732C8.05462 5.00163 8.05462 5.38153 7.8203 5.61585C7.58599 5.85016 7.20609 5.85016 6.97178 5.61585L6.6 5.24407L6.6 7.70446C6.6 8.03583 6.33137 8.30446 6 8.30446C5.66863 8.30446 5.4 8.03583 5.4 7.70446L5.4 5.24407L5.02822 5.61585C4.79391 5.85016 4.41401 5.85016 4.17969 5.61585Z" fill="#F5F6F7"/>
</svg>
