<svg width="20" height="20" viewBox="0 0 20 20" fill="none" xmlns="http://www.w3.org/2000/svg">
<path fill-rule="evenodd" clip-rule="evenodd" d="M8.2 17.2C8.2 18.1941 9.00589 19 10 19C10.9941 19 11.8 18.1941 11.8 17.2V16.0391C12.219 15.9144 12.6197 15.7473 12.9972 15.5428L13.8184 16.364C14.5213 17.0669 15.661 17.0669 16.364 16.364C17.0669 15.661 17.0669 14.5213 16.364 13.8184L15.5428 12.9972C15.7473 12.6197 15.9144 12.219 16.0391 11.8H17.2C18.1941 11.8 19 10.9941 19 10C19 9.00589 18.1941 8.2 17.2 8.2H16.0391C15.9144 7.78102 15.7473 7.3803 15.5428 7.00282L16.364 6.18163C17.0669 5.47869 17.0669 4.33899 16.364 3.63604C15.661 2.9331 14.5213 2.9331 13.8184 3.63604L12.9972 4.45724C12.6197 4.2527 12.219 4.08559 11.8 3.96089V2.8C11.8 1.80589 10.9941 1 10 1C9.00589 1 8.2 1.80589 8.2 2.8V3.96089C7.78101 4.08559 7.3803 4.2527 7.00282 4.45724L6.18163 3.63605C5.47869 2.9331 4.33899 2.9331 3.63604 3.63605C2.9331 4.33899 2.9331 5.47869 3.63604 6.18163L4.45724 7.00283C4.2527 7.3803 4.08559 7.78102 3.96089 8.2H2.8C1.80589 8.2 1 9.00589 1 10C1 10.9941 1.80589 11.8 2.8 11.8H3.96089C4.08559 12.219 4.2527 12.6197 4.45724 12.9972L3.63603 13.8184C2.93309 14.5213 2.93309 15.661 3.63603 16.364C4.33897 17.0669 5.47867 17.0669 6.18161 16.364L7.00282 15.5428C7.38029 15.7473 7.78101 15.9144 8.2 16.0391V17.2ZM9.99999 12.7C11.4912 12.7 12.7 11.4912 12.7 9.99999C12.7 8.50882 11.4912 7.29999 9.99999 7.29999C8.50882 7.29999 7.29999 8.50882 7.29999 9.99999C7.29999 11.4912 8.50882 12.7 9.99999 12.7Z" stroke="#FEFEFF" stroke-linecap="round" stroke-linejoin="round"/>
</svg>
