<svg width="24" height="24" viewBox="0 0 24 24" fill="none" xmlns="http://www.w3.org/2000/svg">
<path d="M16.7071 12.7071L20.7071 8.70711C21.0976 8.31658 21.0976 7.68342 20.7071 7.29289L16.7071 3.29289C16.3166 2.90237 15.6834 2.90237 15.2929 3.29289C14.9024 3.68342 14.9024 4.31658 15.2929 4.70711L17.5858 7L4 7C3.44772 7 3 7.44772 3 8C3 8.55228 3.44772 9 4 9L17.5858 9L15.2929 11.2929C14.9024 11.6834 14.9024 12.3166 15.2929 12.7071C15.6834 13.0976 16.3166 13.0976 16.7071 12.7071Z" fill="white"/>
<path d="M3.29289 15.2929C2.90237 15.6834 2.90237 16.3166 3.29289 16.7071L7.29289 20.7071C7.68342 21.0976 8.31658 21.0976 8.70711 20.7071C9.09763 20.3166 9.09763 19.6834 8.70711 19.2929L6.41421 17L20 17C20.5523 17 21 16.5523 21 16C21 15.4477 20.5523 15 20 15L6.41421 15L8.70711 12.7071C9.09763 12.3166 9.09763 11.6834 8.70711 11.2929C8.31658 10.9024 7.68342 10.9024 7.29289 11.2929L3.29289 15.2929Z" fill="white"/>
</svg>
