<svg width="12" height="14" viewBox="0 0 12 14" fill="none" xmlns="http://www.w3.org/2000/svg">
<path d="M10.7427 6.7728L10.7427 6.7727C10.7545 6.70497 10.7512 6.6355 10.7333 6.56915C10.7154 6.5028 10.6831 6.44117 10.6389 6.38857C10.5947 6.33597 10.5395 6.29366 10.4772 6.26462C10.4149 6.23558 10.347 6.2205 10.2783 6.22043H7.25592H7.25542C7.11241 6.22029 6.97115 6.18904 6.84142 6.12884C6.7117 6.06865 6.59662 5.98096 6.50417 5.87185L6.50417 5.87185C6.41173 5.76274 6.34412 5.63482 6.30605 5.49697M10.7427 6.7728L6.777 5.15518L6.28371 5.07355C6.28368 5.07369 6.28366 5.07384 6.28364 5.07398C6.26038 5.21493 6.26802 5.35926 6.30605 5.49697M10.7427 6.7728L10.4032 8.73793H10.4026L10.3309 9.15276C10.0409 10.8304 8.52682 12.0833 6.72625 12.0833H4.01489C3.89685 12.0832 3.78315 12.0388 3.69622 11.959L3.3634 12.3213L3.69622 11.959C3.60929 11.8791 3.55545 11.7696 3.54532 11.652L3.5453 11.6518L3.07109 6.17304C3.07109 6.17298 3.07108 6.17292 3.07108 6.17285L10.7427 6.7728ZM6.30605 5.49697L6.78801 5.36387L6.30605 5.49697C6.30605 5.49697 6.30605 5.49697 6.30605 5.49697ZM6.62787 1.77254C6.62803 1.77315 6.6282 1.77376 6.62836 1.77437L7.11125 1.64468L6.62725 1.77014C6.62745 1.77094 6.62766 1.77174 6.62787 1.77254ZM6.23639 1.43013L6.38908 0.954015L6.23491 1.42965L6.23582 1.42995C6.23601 1.43001 6.2362 1.43007 6.23639 1.43013ZM6.02654 1.44428C6.02672 1.44419 6.02689 1.44411 6.02706 1.44403L5.80983 0.993681L6.02601 1.44453C6.02619 1.44445 6.02636 1.44436 6.02654 1.44428ZM3.2332 5.77409C3.2333 5.774 3.2334 5.77392 3.2335 5.77383L3.23284 5.7744L3.2332 5.77409Z" fill="#F5F6F7" stroke="#F5F6F7"/>
<path fill-rule="evenodd" clip-rule="evenodd" d="M0.731333 5.28289C0.844068 5.27796 0.954347 5.31678 1.03914 5.39124C1.12392 5.4657 1.17666 5.57004 1.18633 5.68247L1.75217 12.2368C1.76175 12.3344 1.75134 12.4329 1.72157 12.5264C1.69179 12.6198 1.64328 12.7062 1.579 12.7803C1.51472 12.8544 1.43601 12.9146 1.34769 12.9572C1.25936 12.9998 1.16327 13.024 1.06529 13.0282C0.967311 13.0325 0.869492 13.0167 0.77781 12.9819C0.686128 12.9471 0.602507 12.8939 0.532054 12.8257C0.461602 12.7575 0.405797 12.6756 0.368048 12.5851C0.330299 12.4946 0.311398 12.3973 0.3125 12.2992V5.71981C0.312547 5.60704 0.356137 5.49864 0.434174 5.41724C0.512211 5.33583 0.618667 5.2877 0.731333 5.28289Z" fill="#F5F6F7"/>
</svg>
