<svg width="24" height="24" viewBox="0 0 24 24" fill="none" xmlns="http://www.w3.org/2000/svg">
<path d="M9.08612 14.7137C8.89301 14.4663 8.52236 14.4559 8.31569 14.6921L4.24744 19.3415C3.88375 19.7571 3.92587 20.3889 4.34151 20.7526C4.75715 21.1163 5.38891 21.0742 5.75259 20.6585L9.69475 16.1532C9.85271 15.9727 9.86021 15.7054 9.71261 15.5163L9.08612 14.7137Z" fill="#343B45"/>
<path d="M15.6897 9.30181C15.483 9.538 15.1124 9.52761 14.9193 9.28021L14.2928 8.47759C14.1452 8.2885 14.1527 8.02122 14.3107 7.84069L18.2474 3.34151C18.6111 2.92587 19.2429 2.88375 19.6585 3.24744C20.0742 3.61112 20.1163 4.24288 19.7526 4.65852L15.6897 9.30181Z" fill="#343B45"/>
<path d="M20.8996 20.1923L7.78032 3.3847C7.59082 3.14192 7.30002 3 6.99203 3H3.50459C3.08811 3 2.85419 3.47935 3.11044 3.80765L16.2298 20.6153C16.4193 20.8581 16.7101 21 17.0181 21H20.5055C20.922 21 21.1559 20.5206 20.8996 20.1923Z" fill="#343B45"/>
</svg>
