<svg width="24" height="24" viewBox="0 0 24 24" fill="none" xmlns="http://www.w3.org/2000/svg">
<path fill-rule="evenodd" clip-rule="evenodd" d="M5.58971 4.20941C3.72849 4.33555 2.29215 5.81694 2.1711 7.6785C2.08072 9.06851 2 10.6796 2 12C2 13.3204 2.08072 14.9315 2.1711 16.3215C2.29215 18.1831 3.72849 19.6645 5.58971 19.7906C7.21433 19.9007 9.40027 20 12 20C14.5997 20 16.7857 19.9007 18.4103 19.7906C20.2715 19.6645 21.7078 18.1831 21.8289 16.3215C21.9193 14.9315 22 13.3204 22 12C22 10.6796 21.9193 9.06851 21.8289 7.6785C21.7078 5.81694 20.2715 4.33555 18.4103 4.20941C16.7857 4.09931 14.5997 4 12 4C9.40027 4 7.21433 4.09931 5.58971 4.20941ZM11.5521 9.16779C10.8873 8.72764 10 9.20432 10 10.0016V13.9987C10 14.7959 10.8873 15.2726 11.552 14.8325L14.5454 12.8507C15.1546 12.4474 15.1547 11.5531 14.5455 11.1498L11.5521 9.16779Z" fill="#343B45"/>
</svg>
